<?xml version="1.0" encoding="utf-8"?>
<!-- Generator: Adobe Illustrator 21.1.0, SVG Export Plug-In . SVG Version: 6.00 Build 0)  -->
<svg version="1.1" id="Livello_1" xmlns="http://www.w3.org/2000/svg" xmlns:xlink="http://www.w3.org/1999/xlink" x="0px" y="0px"
	 viewBox="0 0 368.5 368.6" style="enable-background:new 0 0 368.5 368.6;" xml:space="preserve">
<style type="text/css">
	.st0{fill:#CA0029;}
	.st1{fill:#4C6D5D;}
	.st2{fill:#FFFFFF;}
	.st3{fill:none;stroke:#000000;stroke-width:0.5;stroke-miterlimit:10;}
	.st4{clip-path:url(#SVGID_2_);}
	.st5{clip-path:url(#SVGID_4_);}
	.st6{clip-path:url(#SVGID_6_);}
	.st7{stroke:#000000;stroke-width:0.5;stroke-miterlimit:10;}
	.st8{clip-path:url(#SVGID_18_);}
	.st9{fill:none;}
	.st10{clip-path:url(#SVGID_20_);}
	.st11{clip-path:url(#SVGID_22_);}
	.st12{clip-path:url(#SVGID_24_);}
	.st13{clip-path:url(#SVGID_26_);}
	.st14{clip-path:url(#SVGID_28_);}
	.st15{clip-path:url(#SVGID_30_);}
	.st16{fill:#FFFFFF;stroke:#000000;stroke-width:0.5;stroke-miterlimit:10;}
	.st17{clip-path:url(#SVGID_32_);}
	.st18{clip-path:url(#SVGID_34_);}
	.st19{clip-path:url(#SVGID_36_);}
	.st20{clip-path:url(#SVGID_38_);}
	.st21{clip-path:url(#SVGID_40_);}
	.st22{clip-path:url(#SVGID_42_);}
	.st23{clip-path:url(#SVGID_44_);}
	.st24{clip-path:url(#SVGID_46_);}
	.st25{clip-path:url(#SVGID_48_);}
	.st26{clip-path:url(#SVGID_50_);}
	.st27{clip-path:url(#SVGID_52_);}
	.st28{stroke:#FFFFFF;stroke-width:5;stroke-miterlimit:10;}
	.st29{clip-path:url(#SVGID_74_);fill:none;stroke:#000000;stroke-width:0.5;stroke-miterlimit:10;}
	.st30{clip-path:url(#SVGID_74_);fill:#FFFFFF;stroke:#000000;stroke-width:0.5;stroke-miterlimit:10;}
	.st31{fill:none;stroke:#000000;stroke-width:0.4877;stroke-miterlimit:10;}
	.st32{fill:none;stroke:#000000;stroke-width:0.4871;stroke-miterlimit:10;}
	.st33{fill:none;stroke:#000000;stroke-width:0.5123;stroke-miterlimit:10;}
	.st34{fill:#FFC500;}
	.st35{fill:#708B36;}
	.st36{fill:#B20023;}
	.st37{fill:#FF3500;}
	.st38{fill:#6E3A2C;}
	.st39{clip-path:url(#SVGID_86_);}
	.st40{clip-path:url(#SVGID_88_);}
	.st41{clip-path:url(#SVGID_92_);fill:none;stroke:#000000;stroke-width:0.5;stroke-miterlimit:10;}
	.st42{clip-path:url(#SVGID_92_);fill:#FFFFFF;stroke:#000000;stroke-width:0.5;stroke-miterlimit:10;}
	.st43{clip-path:url(#SVGID_94_);}
	.st44{clip-path:url(#SVGID_98_);}
	.st45{clip-path:url(#SVGID_102_);}
	.st46{clip-path:url(#SVGID_104_);}
	.st47{clip-path:url(#SVGID_108_);}
	.st48{clip-path:url(#SVGID_112_);}
</style>
<g>
	<defs>
		<rect id="SVGID_107_" x="0.2" y="0.2" width="368" height="368.1"/>
	</defs>
	<clipPath id="SVGID_2_">
		<use xlink:href="#SVGID_107_"  style="overflow:visible;"/>
	</clipPath>
	<g class="st4">
		<path class="st3" d="M107.1,289.6c2.4,2.4,6.4,2.4,8.9-0.1l7.3,7.3c-1.9,1.9-2.4,4.6-1.5,6.9c0.3,0.7,0.7,1.4,1.3,2
			c2.4,2.4,6.4,2.4,8.9-0.1c0.4-0.4,0.7-0.7,0.9-1.2c36.4,0.3,79.9-18.8,115.4-54.4c35.6-35.6,54.7-79,54.4-115.4
			c0.4-0.3,0.8-0.6,1.2-0.9c2.5-2.5,2.5-6.5,0.1-8.9c-0.6-0.6-1.3-1-2-1.3c-2.3-0.9-5-0.4-6.9,1.5l-7.3-7.3c2.5-2.5,2.5-6.5,0.1-8.9
			c-2.4-2.4-6.4-2.4-8.9,0.1l-7.3-7.3c2.5-2.5,2.5-6.5,0.1-8.9c-2.4-2.4-6.4-2.4-8.9,0.1l-7.3-7.3c2.5-2.5,2.5-6.5,0.1-8.9
			s-6.4-2.4-8.9,0.1l-7.3-7.3c1.9-1.9,2.4-4.6,1.5-6.9c-0.3-0.7-0.7-1.4-1.3-2c-2.4-2.4-6.4-2.4-8.9,0.1c-0.4,0.4-0.7,0.7-0.9,1.2
			c-36.4-0.3-79.9,18.8-115.4,54.4c-35.6,35.6-54.7,79-54.4,115.4c-0.4,0.3-0.8,0.6-1.2,0.9c-2.5,2.5-2.5,6.5-0.1,8.9
			c0.6,0.6,1.3,1,2,1.3c2.3,0.9,5,0.4,6.9-1.5l7.3,7.3c-2.5,2.5-2.5,6.5-0.1,8.9c2.4,2.4,6.4,2.4,8.9-0.1l7.3,7.3
			c-2.5,2.5-2.5,6.5-0.1,8.9c2.4,2.4,6.4,2.4,8.9-0.1l7.3,7.3C104.8,283.2,104.7,287.2,107.1,289.6z"/>
		
			<ellipse transform="matrix(0.7071 -0.7071 0.7071 0.7071 -57.5816 133.2552)" class="st3" cx="132.1" cy="136.1" rx="4.5" ry="4.4"/>
		
			<ellipse transform="matrix(0.7071 -0.7071 0.7071 0.7071 -91.6304 147.3587)" class="st3" cx="132.1" cy="184.3" rx="4.5" ry="4.4"/>
		
			<ellipse transform="matrix(0.7071 -0.7071 0.7071 0.7071 -141.7299 154.8138)" class="st3" cx="116" cy="248.5" rx="4.5" ry="4.4"/>
		
			<ellipse transform="matrix(0.7071 -0.7071 0.7071 0.7071 -89.6831 119.9584)" class="st3" cx="100" cy="168.2" rx="4.5" ry="4.4"/>
		
			<ellipse transform="matrix(0.7071 -0.7071 0.7071 0.7071 -123.7319 134.0618)" class="st3" cx="100" cy="216.4" rx="4.5" ry="4.4"/>
		
			<ellipse transform="matrix(0.7071 -0.7071 0.7071 0.7071 -109.6284 168.1106)" class="st3" cx="148.1" cy="216.4" rx="4.5" ry="4.4"/>
		
			<ellipse transform="matrix(0.7071 -0.7071 0.7071 0.7071 -143.6772 182.2141)" class="st3" cx="148.1" cy="264.5" rx="4.5" ry="4.4"/>
		<ellipse transform="matrix(0.7071 -0.7071 0.7071 0.7071 -25.48 146.5521)" class="st3" cx="164.2" cy="104" rx="4.5" ry="4.4"/>
		
			<ellipse transform="matrix(0.7071 -0.7071 0.7071 0.7071 -43.4781 167.304)" class="st3" cx="180.2" cy="136.1" rx="4.5" ry="4.4"/>
		
			<ellipse transform="matrix(0.7071 -0.7071 0.7071 0.7071 -77.5269 181.4075)" class="st3" cx="180.2" cy="184.3" rx="4.5" ry="4.4"/>
		
			<ellipse transform="matrix(0.7071 -0.7071 0.7071 0.7071 -111.5757 195.511)" class="st3" cx="180.2" cy="232.4" rx="4.5" ry="4.4"/>
		
			<ellipse transform="matrix(0.7071 -0.7071 0.7071 0.7071 -129.5737 216.2629)" class="st3" cx="196.3" cy="264.5" rx="4.5" ry="4.4"/>
		
			<ellipse transform="matrix(0.7071 -0.7071 0.7071 0.7071 -45.4254 194.7044)" class="st3" cx="212.3" cy="152.2" rx="4.5" ry="4.4"/>
		
			<ellipse transform="matrix(0.7071 -0.7071 0.7071 0.7071 -11.3766 180.6009)" class="st3" cx="212.3" cy="104" rx="4.5" ry="4.4"/>
		
			<ellipse transform="matrix(0.7071 -0.7071 0.7071 0.7071 -63.4234 215.4563)" class="st3" cx="228.4" cy="184.3" rx="4.5" ry="4.4"/>
		
			<ellipse transform="matrix(0.7071 -0.7071 0.7071 0.7071 -97.4722 229.5598)" class="st3" cx="228.4" cy="232.4" rx="4.5" ry="4.4"/>
		
			<ellipse transform="matrix(0.7071 -0.7071 0.7071 0.7071 -13.3239 208.0013)" class="st3" cx="244.4" cy="120.1" rx="4.5" ry="4.4"/>
		
			<ellipse transform="matrix(0.7071 -0.7071 0.7071 0.7071 -31.3219 228.7532)" class="st3" cx="260.5" cy="152.2" rx="4.5" ry="4.4"/>
		
			<ellipse transform="matrix(0.7071 -0.7071 0.7071 0.7071 -65.3707 242.8567)" class="st3" cx="260.5" cy="200.3" rx="4.5" ry="4.4"/>
	</g>
</g>
</svg>
