<?xml version="1.0" encoding="utf-8"?>
<!-- Generator: Adobe Illustrator 18.0.0, SVG Export Plug-In . SVG Version: 6.00 Build 0)  -->
<!DOCTYPE svg PUBLIC "-//W3C//DTD SVG 1.1//EN" "http://www.w3.org/Graphics/SVG/1.1/DTD/svg11.dtd">
<svg version="1.1" id="_x2014_ÎÓÈ_x5F_1" xmlns="http://www.w3.org/2000/svg" xmlns:xlink="http://www.w3.org/1999/xlink"
	 x="0px" y="0px" viewBox="0 0 1888 1888" enable-background="new 0 0 1888 1888" xml:space="preserve">
<g>
	<g>
		<path fill="none" stroke="#201600" stroke-miterlimit="10" d="M1370,303.7c0.6,0.4,1.2,1.9,0.9,2.6c-0.3,0.9-2.4,1.6-3.3,2
			c-0.4,0.2-1.2,0.7-1.6,0.6c-0.7-0.2-1.5-1.8-1.6-2.6c-0.1-0.7,0.4-2.2,0.9-2.6C1366.3,303,1369.1,303,1370,303.7z"/>
		<path fill="none" stroke="#201600" stroke-miterlimit="10" d="M1366.2,310.3c-0.2,0-0.4,0-0.6-0.1c-1.4-0.5-2.5-2.8-2.6-3.8
			c-0.1-1.1,0.4-3.1,1.5-3.9c1.4-1,4.9-1,6.3,0c1,0.7,1.9,2.9,1.5,4.2c-0.5,1.3-2.1,2-3.4,2.6c-0.2,0.1-0.4,0.2-0.6,0.3
			c0,0-0.1,0.1-0.2,0.1C1367.6,310,1367,310.3,1366.2,310.3z M1366.3,304.8c-0.2,0.3-0.4,1-0.4,1.3c0,0.2,0.3,0.8,0.6,1.2
			c0.1-0.1,0.2-0.1,0.3-0.2c0.1-0.1,0.2-0.1,0.3-0.2c0.2-0.1,0.5-0.2,0.7-0.3c0.4-0.2,1.4-0.6,1.8-0.9c-0.1-0.3-0.3-0.8-0.4-1
			C1368.6,304.5,1366.8,304.5,1366.3,304.8z"/>
	</g>
	<g>
		<path fill="none" stroke="#201600" stroke-miterlimit="10" d="M1407,244.6c0.5,1.4-2.6,3.7-3,5.2c-0.4,1.4,0.4,4.3,0,5.7
			c-0.3,1-1.7,2.9-2.6,3.5c-1.2,0.8-4.5,2.1-5.8,1.4c-0.7-0.3-0.9-2.2-1.4-2.8c-0.9-1.1-3.9-2.4-4.2-3.8c-0.2-1.3,2.2-3.4,2.5-4.7
			c0.4-1.5-1-5,0-6.3c1.2-1.5,5.5-2.1,7.4-1.8c1,0.2,2.4,1.7,3.3,2.1C1404.2,243.6,1406.7,243.6,1407,244.6z"/>
		<path fill="none" stroke="#201600" stroke-miterlimit="10" d="M1396.7,261.9c-0.6,0-1.1-0.1-1.6-0.3c-1-0.5-1.3-1.5-1.6-2.5
			c-0.1-0.3-0.2-0.7-0.3-0.8c-0.2-0.2-0.9-0.7-1.4-1.1c-1.4-0.9-2.8-1.9-3-3.3c-0.2-1.4,0.7-2.6,1.6-3.8c0.3-0.5,0.9-1.2,0.9-1.4
			c0.1-0.4-0.1-1.4-0.2-2.1c-0.2-1.7-0.5-3.5,0.4-4.7c1.7-2.2,6.9-2.6,8.8-2.3c0.9,0.2,1.8,0.9,2.7,1.5c0.4,0.3,0.8,0.6,1,0.7
			c0.1,0.1,0.7,0.2,1,0.2c1.3,0.3,2.9,0.6,3.4,2l0,0c0.6,1.6-0.7,3.1-1.8,4.5c-0.4,0.5-1.1,1.3-1.1,1.6c-0.1,0.4,0,1.4,0.1,2.2
			c0.1,1.3,0.2,2.5-0.1,3.5c-0.4,1.3-1.9,3.5-3.1,4.3C1401.4,260.7,1398.8,261.9,1396.7,261.9z M1396.4,259.1
			c0.8,0.1,3.1-0.6,4.2-1.3c0.6-0.4,1.7-2,2-2.8c0.1-0.4,0-1.5-0.1-2.3c-0.1-1.2-0.2-2.3,0-3.3c0.2-0.9,1-1.8,1.7-2.7
			c0.3-0.4,0.9-1.1,1.2-1.5c-0.3-0.1-0.8-0.2-1.1-0.3c-0.6-0.1-1.3-0.3-1.8-0.5c-0.5-0.2-0.9-0.6-1.5-1c-0.4-0.3-1.1-0.9-1.4-1
			c-1.7-0.3-5.3,0.4-6,1.2c-0.2,0.3,0,1.8,0.2,2.5c0.2,1.2,0.3,2.3,0.1,3.2c-0.2,0.8-0.8,1.6-1.4,2.4c-0.4,0.5-1,1.3-1.1,1.7
			c0.2,0.3,1.2,1,1.8,1.4c0.8,0.6,1.6,1.1,2.1,1.7c0.3,0.4,0.5,1,0.7,1.6C1396.2,258.5,1396.3,258.9,1396.4,259.1z"/>
	</g>
	<g>
		<path fill="none" stroke="#201600" stroke-miterlimit="10" d="M1353.6,312.4c0.9,0.4,2.2,2.4,2.2,3.4c0,1.2-1.9,3-2.5,3.9
			c-0.7,1-1.9,3.6-3.1,3.8c-0.9,0.2-2.6-1-3.1-1.8c-0.7-1-1.4-3.6-1-4.7c0.4-1.3,2.8-3.1,4.1-3.8
			C1350.8,312.8,1352.7,312.1,1353.6,312.4z"/>
		<path fill="none" stroke="#201600" stroke-miterlimit="10" d="M1349.9,324.9c-1.6,0-3.6-1.6-4.1-2.4c-0.9-1.2-1.8-4.2-1.3-6
			c0.6-2.1,3.9-4.2,4.7-4.6c0.1-0.1,3-1.6,4.8-0.9c0,0,0,0,0,0c1.5,0.6,3.1,3.1,3.1,4.8c0,1.4-1.2,2.8-2.2,4
			c-0.2,0.3-0.5,0.5-0.6,0.7c-0.1,0.2-0.4,0.5-0.6,0.9c-0.9,1.5-1.9,3.1-3.4,3.4C1350.2,324.9,1350.1,324.9,1349.9,324.9z
			 M1353,313.8c-0.4,0-1.5,0.3-2.4,0.8c-1.4,0.7-3.2,2.3-3.4,2.9c-0.2,0.6,0.3,2.7,0.8,3.4c0.3,0.4,1.3,1.1,1.7,1.2
			c0.4-0.3,1.2-1.5,1.5-2.1c0.3-0.4,0.5-0.8,0.7-1.1c0.2-0.3,0.4-0.6,0.7-0.9c0.4-0.5,1.5-1.7,1.5-2.2
			C1354.3,315.3,1353.5,314.1,1353,313.8C1353,313.8,1353,313.8,1353,313.8z"/>
	</g>
	<g>
		<path fill="none" stroke="#201600" stroke-miterlimit="10" d="M1291,350.4c0.2,2.2,0.4,6.6,0,8.7c-0.3,1.4-1.1,4.5-2.3,5.3
			c-1.4,0.9-5.2,0.6-6.7,0c-2-0.8-4.4-4.6-6.3-5.7c-1.5-0.9-5.2-0.9-6.4-2.1c-1.5-1.5-2.9-6.1-2.8-8.2c0.1-1.8,1.4-5.5,2.8-6.5
			c1.5-1.1,5.4-0.7,7.2-0.6c1.4,0.1,4.2,1,5.6,1.3c1.9,0.4,6.4-0.3,7.8,1.1C1291.1,344.8,1290.9,348.7,1291,350.4z"/>
		<path fill="none" stroke="#201600" stroke-miterlimit="10" d="M1285.8,366.4c-1.7,0-3.4-0.3-4.3-0.7c-1.4-0.5-2.7-2-4.1-3.4
			c-0.9-1-1.8-1.9-2.4-2.3c-0.4-0.3-1.4-0.5-2.3-0.7c-1.6-0.3-3.4-0.7-4.3-1.7c-1.8-1.8-3.3-6.7-3.2-9.3c0.1-1.9,1.4-6.2,3.4-7.6
			c1.7-1.2,5-1.1,7.9-0.9l0.2,0c1,0.1,2.4,0.4,3.7,0.8c0.8,0.2,1.5,0.4,2,0.5c0.5,0.1,1.4,0.1,2.3,0.1c2.4,0,4.8,0,6.2,1.3
			c1.4,1.3,1.4,4.1,1.5,6.3c0,0.5,0,0.9,0.1,1.3c0,0,0,0,0,0c0.1,1.5,0.5,6.6,0,9.1c-0.4,1.9-1.3,5.1-2.9,6.2
			C1288.6,366.2,1287.2,366.4,1285.8,366.4z M1273.2,342.6c-1.3,0-2.5,0.1-3,0.5c-0.9,0.7-2.1,3.9-2.2,5.4c-0.1,1.8,1.2,6,2.4,7.2
			c0.4,0.4,1.9,0.7,2.9,0.9c1.2,0.3,2.4,0.5,3.2,1c1,0.6,2,1.7,3.1,2.8c1,1.1,2.2,2.4,3,2.7c1.5,0.6,4.6,0.7,5.4,0.1
			c0.4-0.3,1.2-1.9,1.7-4.4c0.4-1.7,0.2-5.6,0-8.3l0,0c0-0.4-0.1-0.9-0.1-1.4c0-1.1-0.1-3.9-0.7-4.4c-0.5-0.5-2.9-0.5-4.2-0.5
			c-1.1,0-2.1,0-2.8-0.2c-0.6-0.1-1.4-0.3-2.2-0.6c-1.1-0.3-2.5-0.7-3.2-0.7l-0.2,0C1275.6,342.7,1274.4,342.6,1273.2,342.6z"/>
	</g>
	<g>
		<path fill="none" stroke="#201600" stroke-miterlimit="10" d="M1335.9,423c0.1,1.1,0.5,3.5,0,4.5c-0.5,1-2.4,2.5-3.5,2.9
			c-0.8,0.4-2.5,0.6-3.4,0.6c-1.1-0.1-3.2-0.7-4.1-1.3c-1.3-1-2.7-4.2-4-5.3c-0.9-0.9-3.4-1.8-4.2-2.7c-1.1-1.4-2.6-4.8-2.8-6.6
			c-0.2-1.7,0.3-5.4,1.3-6.8c1-1.6,4.3-4.1,6.2-4.3c0.8-0.1,2.5,0.5,3,1.2c1.1,1.3-0.4,5.7,0.9,6.8c0.7,0.7,3-0.3,4,0
			c1.5,0.5,4.5,2.4,5.3,3.8C1335.7,417.2,1335.8,421.1,1335.9,423z"/>
		<path fill="none" stroke="#201600" stroke-miterlimit="10" d="M1329.3,432.4c-0.1,0-0.2,0-0.3,0c-1.2-0.1-3.6-0.7-4.8-1.6
			c-1-0.7-1.8-2-2.6-3.3c-0.5-0.8-1.1-1.7-1.5-2.1c-0.3-0.3-1-0.7-1.6-1c-1-0.6-2.1-1.1-2.7-1.9c-1.3-1.6-2.9-5.3-3.1-7.4
			c-0.2-1.8,0.3-5.9,1.5-7.8c1.1-1.8,4.7-4.7,7.2-5c1.2-0.2,3.5,0.6,4.3,1.7c0.8,1,0.8,2.6,0.7,4.3c0,0.7-0.1,1.8,0,2.3
			c0.3,0,0.8-0.1,1.1-0.1c0.8-0.1,1.7-0.3,2.4,0c1.7,0.5,5,2.6,6.1,4.4c0.9,1.5,1.1,4,1.3,6.8c0,0.4,0,0.8,0.1,1.1
			c0,0.2,0,0.4,0.1,0.6c0.2,1.8,0.3,3.5-0.2,4.6c-0.7,1.5-3.1,3.1-4.2,3.6C1332.1,432.1,1330.4,432.4,1329.3,432.4z M1321.8,405.3
			C1321.7,405.3,1321.7,405.3,1321.8,405.3c-1.3,0.2-4.3,2.3-5.2,3.7c-0.7,1.1-1.2,4.4-1.1,5.9c0.2,1.5,1.5,4.7,2.5,5.8
			c0.3,0.3,1.2,0.8,1.9,1.2c0.8,0.5,1.6,0.9,2.2,1.4c0.7,0.6,1.3,1.6,2,2.7c0.6,0.9,1.3,2.1,1.8,2.5c0.6,0.4,2.4,1,3.3,1
			c0.7,0,2.1-0.2,2.7-0.5c1-0.5,2.5-1.7,2.8-2.3c0.2-0.5,0-2.3-0.1-3c0-0.3-0.1-0.5-0.1-0.7c0,0,0,0,0,0c0-0.3,0-0.7-0.1-1.2
			c-0.1-1.6-0.3-4.5-0.9-5.5c-0.6-1-3.2-2.7-4.6-3.2c-0.1,0-0.7,0.1-1.1,0.1c-1.2,0.2-2.5,0.4-3.4-0.4c-1.2-1-1.1-2.9-1-4.6
			c0-0.8,0.1-2.1-0.1-2.4C1323.2,405.7,1322.2,405.3,1321.8,405.3z"/>
	</g>
	<g>
		<path fill="none" stroke="#201600" stroke-miterlimit="10" d="M1327.2,379.6c0.2,0.5,0.3,1.7,0,2.1c-0.5,0.9-2.7,1.9-3.7,2.1
			c-0.9,0.2-2.9-0.6-3.7-0.1c-0.7,0.4-1.2,2.2-1.2,2.9c0,1.2,1.9,3.1,2.1,4.2c0.2,1.1,0.1,3.5-0.3,4.6c-0.3,0.8-1.3,2.4-2.1,2.7
			c-1,0.4-3.2-0.2-4.1-0.8c-0.9-0.7-1.5-3.2-2.3-4c-0.8-0.8-2.9-1.8-3.9-2.4c-1.5-0.7-5-1.1-6-2.4c-1.6-2-2-7.6-1.9-10.1
			c0.1-1.9,1.1-5.6,2.1-7.2c0.9-1.3,3.5-3.4,5-4c1.3-0.5,4.2,0,5.6-0.3c1-0.3,2.6-1.6,3.6-1.8c1.3-0.2,4.1,0.2,5,1.1
			c1,1,1.3,4.3,1.4,5.8c0.1,1.2-1.2,3.9-0.5,4.8c0.4,0.5,2.1,0.2,2.7,0.5C1325.6,377.7,1326.9,378.9,1327.2,379.6z"/>
		<path fill="none" stroke="#201600" stroke-miterlimit="10" d="M1317.5,399.7c-1.5,0-3.3-0.6-4.1-1.2c-0.8-0.6-1.3-1.7-1.8-2.7
			c-0.2-0.5-0.5-1.2-0.7-1.4c-0.4-0.4-1.6-1.1-3.5-2.1c-0.4-0.2-1.2-0.4-2-0.6c-1.8-0.5-3.6-1-4.6-2.1c-2.1-2.6-2.3-9-2.2-11.1
			c0.1-1.9,1.1-6,2.3-7.9c1-1.6,3.9-3.9,5.7-4.5c1-0.4,2.3-0.4,3.6-0.3c0.8,0,1.7,0,2.1-0.1c0.2-0.1,0.8-0.4,1.2-0.7
			c0.8-0.5,1.7-1,2.6-1.1c1.4-0.2,4.8,0.1,6.2,1.5c1.3,1.3,1.6,4,1.8,6.7c0.1,0.7-0.1,1.5-0.4,2.3c-0.1,0.4-0.3,1.1-0.3,1.5
			c0.1,0,0.2,0,0.3,0c0.6,0,1.2,0,1.8,0.3c0.9,0.5,2.5,1.8,3,2.9c0,0,0,0,0,0c0.3,0.8,0.5,2.4-0.1,3.4c-0.9,1.6-3.9,2.6-4.6,2.8
			c-0.7,0.2-1.4,0-2.2-0.1c-0.3-0.1-0.8-0.1-1.1-0.1c-0.2,0.4-0.5,1.3-0.5,1.6c0,0.3,0.6,1.1,0.9,1.6c0.5,0.8,1,1.6,1.2,2.4
			c0.3,1.4,0.1,4.1-0.4,5.4c-0.2,0.6-1.4,3-2.9,3.5C1318.4,399.7,1318,399.7,1317.5,399.7z M1309.2,368.5c-0.6,0-1.3,0-1.5,0.1
			c-1.2,0.5-3.6,2.4-4.3,3.5c-0.8,1.2-1.8,4.8-1.9,6.5c-0.1,2.9,0.4,7.7,1.5,9.2c0.4,0.4,2.1,0.9,3.1,1.2c0.9,0.2,1.8,0.5,2.5,0.8
			c1.6,0.8,3.4,1.7,4.3,2.6c0.6,0.6,0.9,1.4,1.3,2.3c0.2,0.5,0.6,1.4,0.8,1.6c0.6,0.4,2.3,0.8,2.7,0.6c0.2-0.2,1-1.2,1.3-1.9
			c0.3-0.8,0.5-2.9,0.3-3.8c-0.1-0.3-0.5-1-0.8-1.4c-0.6-1-1.3-2-1.3-3c0-1,0.5-3.3,1.8-4.2c0.9-0.6,2.1-0.4,3.1-0.2
			c0.4,0.1,0.9,0.2,1.1,0.1c1-0.3,2.4-1,2.8-1.4c0-0.2,0-0.7,0-0.9c-0.2-0.3-1-1.2-1.6-1.5c-0.1,0-0.4,0-0.6,0c-0.8,0-2,0-2.6-0.9
			c-0.8-1.1-0.4-2.7-0.1-4.1c0.1-0.5,0.3-1.2,0.3-1.4c-0.3-3.8-0.8-4.7-1-4.9c-0.4-0.4-2.6-0.8-3.8-0.7c-0.3,0-1,0.5-1.4,0.7
			c-0.7,0.4-1.3,0.8-2,1c-0.8,0.2-1.8,0.2-2.9,0.2C1309.9,368.5,1309.5,368.5,1309.2,368.5z"/>
	</g>
	<g>
		<path fill="none" stroke="#201600" stroke-miterlimit="10" d="M1201.7,351.8c0.9,0.8,1.8,3.1,1.8,4.3c0,0.8-0.8,2.4-1.5,2.9
			c-0.8,0.6-3,0.5-4,0.4c-1.6-0.2-4.6-1.3-5.9-2.2c-0.9-0.6-2.2-2.6-3.1-3.3c-1-0.8-3.8-1.4-4.6-2.4c-0.9-1.1-1.7-4-1.7-5.4
			c0-1.1,0.7-3.4,1.5-4.1c0.7-0.7,2.9-1.5,4-1.4c0.8,0.1,2,1.4,2.8,1.6c0.7,0.2,2.3-0.2,3.1,0.1c0.7,0.2,2,1,2.3,1.6
			c0.6,1,0,3.6,0.5,4.7c0.4,0.8,1.6,2,2.3,2.4C1199.8,351.4,1201.3,351.4,1201.7,351.8z"/>
		<path fill="none" stroke="#201600" stroke-miterlimit="10" d="M1199.7,360.9c-0.9,0-1.6-0.1-1.8-0.1c-1.8-0.2-5.1-1.4-6.5-2.4
			c-0.7-0.5-1.3-1.2-2-2c-0.4-0.5-0.9-1.1-1.2-1.3c-0.3-0.2-1-0.5-1.7-0.7c-1.2-0.5-2.5-1-3.2-1.8c-1.1-1.4-2.1-4.6-2-6.4
			c0-1.3,0.8-4,1.9-5.1c1-1,3.6-1.9,5.1-1.8c0.8,0.1,1.5,0.6,2.2,1.1c0.3,0.2,0.7,0.5,0.8,0.6c0.1,0,0.7,0,1,0
			c0.7-0.1,1.5-0.1,2.1,0.1c0.8,0.2,2.5,1.1,3.1,2.2c0.5,0.9,0.5,2,0.5,3.2c0,0.5,0,1.4,0.1,1.6c0.2,0.4,1.2,1.4,1.8,1.8
			c0.1,0,0.4,0.1,0.6,0.1c0.7,0.2,1.5,0.3,2,0.8l0,0c0,0,0,0,0,0l0,0c1.2,1.1,2.3,3.8,2.3,5.4c0,1.2-1,3.3-2.1,4
			C1202.1,360.8,1200.7,360.9,1199.7,360.9z M1188,342.1c-0.7,0-2.3,0.5-2.7,1c-0.4,0.4-1.1,2.3-1.1,3.2c0,1.2,0.7,3.7,1.4,4.5
			c0.2,0.3,1.4,0.7,2.1,1c0.9,0.3,1.7,0.7,2.3,1.1c0.6,0.4,1.1,1.1,1.7,1.8c0.4,0.5,1,1.2,1.3,1.5c1.1,0.7,3.9,1.8,5.3,2
			c1.3,0.2,2.7,0.1,3-0.1c0.3-0.2,0.8-1.3,0.8-1.8c0-0.7-0.7-2.6-1.3-3.2c-0.2-0.1-0.5-0.1-0.8-0.2c-0.5-0.1-1.1-0.2-1.6-0.5
			c-0.9-0.5-2.4-1.9-2.9-3c-0.4-0.8-0.4-1.8-0.4-2.8c0-0.5,0-1.5-0.1-1.7c-0.2-0.2-1.1-0.8-1.5-0.9c-0.2,0-0.7,0-1.1,0
			c-0.7,0-1.4,0.1-2-0.1c-0.6-0.2-1.2-0.6-1.7-1C1188.6,342.5,1188.2,342.1,1188,342.1C1188,342.1,1188,342.1,1188,342.1z"/>
	</g>
	<g>
		<path fill="none" stroke="#201600" stroke-miterlimit="10" d="M1129.8,360.7c0.2,0.7,0.3,2.3,0,2.9c-0.5,1.1-2.4,2.9-3.5,3.4
			c-0.8,0.4-2.7,0.8-3.6,0.6c-0.9-0.2-2.6-1.4-3-2.2c-0.6-1.2-0.5-4.1,0-5.3c0.4-0.9,2-2.4,2.9-2.8c1.2-0.5,4.1-0.7,5.2,0
			C1128.6,357.8,1129.5,359.8,1129.8,360.7z"/>
		<path fill="none" stroke="#201600" stroke-miterlimit="10" d="M1123.3,369.2c-0.4,0-0.7,0-1-0.1c-1.3-0.3-3.3-1.7-3.9-3
			c-0.8-1.6-0.7-5,0-6.5c0.5-1.3,2.3-3,3.7-3.6c1.5-0.6,4.9-0.9,6.5,0.1c1.7,1,2.6,4.2,2.6,4.3c0,0,0,0,0,0c0.2,0.8,0.4,2.7-0.1,3.8
			c-0.7,1.6-2.9,3.5-4.2,4.2C1126.1,368.8,1124.6,369.2,1123.3,369.2z M1125.4,358.3c-0.9,0-1.8,0.1-2.3,0.3
			c-0.6,0.2-1.9,1.5-2.1,2.1c-0.4,0.9-0.4,3.4,0,4.1c0.2,0.4,1.5,1.4,2.1,1.5c0.4,0.1,2-0.1,2.6-0.5c0.9-0.5,2.5-2,2.8-2.7
			c0.1-0.3,0.1-1.4-0.1-2c-0.3-1-1-2.3-1.3-2.6C1126.8,358.4,1126.1,358.3,1125.4,358.3z"/>
	</g>
	<g>
		<path fill="none" stroke="#201600" stroke-miterlimit="10" d="M729.5,300c0.7,0.4,1.3,2.2,1.3,3c0,0.6-0.6,1.7-1.1,2
			c-0.6,0.3-2,0.2-2.6,0c-0.8-0.3-2.5-1.2-2.7-2c-0.2-0.9,1-2.6,1.7-3C726.9,299.6,728.8,299.5,729.5,300z"/>
		<path fill="none" stroke="#201600" stroke-miterlimit="10" d="M728.6,306.7c-0.8,0-1.6-0.2-1.9-0.3c0,0-3.2-1.1-3.6-3.1
			c-0.3-1.7,1.4-3.9,2.4-4.5c1.1-0.7,3.6-0.8,4.9,0c1.2,0.8,2,3.1,1.9,4.3c0,1-0.9,2.6-1.8,3.2C729.9,306.6,729.3,306.7,728.6,306.7
			z M725.8,302.7c0.3,0.3,1.1,0.8,1.7,1c0.3,0.1,1.1,0.2,1.4,0.1c0.2-0.2,0.4-0.7,0.4-0.9c0-0.4-0.4-1.4-0.7-1.7
			c-0.4-0.2-1.5-0.1-1.9,0C726.5,301.4,726,302.2,725.8,302.7z"/>
	</g>
	<g>
		<path fill="none" stroke="#201600" stroke-miterlimit="10" d="M752.3,299.8c0.3,1.1,0.8,3.6,0.4,4.8c-0.3,0.8-1.5,2.2-2.3,2.6
			c-1.1,0.6-3.7,0.2-4.8,0.7c-1.4,0.6-3.4,3.3-4.9,3.5c-1.4,0.2-4.3-0.8-5.2-1.9c-0.5-0.5-1-2-0.8-2.7c0.2-0.7,2.1-1.1,2.5-1.8
			c0.6-0.8,1.2-2.7,1.2-3.7c0-1.3-2.4-3.7-1.6-4.8c0.6-0.9,3.1-0.2,4.2,0c1.1,0.2,3.2,1.5,4.3,1.5c1.4,0,4-2.1,5.3-1.5
			C751.5,297.1,752,299,752.3,299.8z"/>
		<path fill="none" stroke="#201600" stroke-miterlimit="10" d="M740.4,312.9c-1.9,0-4.8-1.1-5.9-2.3c-0.7-0.8-1.5-2.8-1.1-4.1
			c0.3-0.9,1.2-1.4,2.1-1.8c0.2-0.1,0.6-0.3,0.7-0.4c0.4-0.6,0.9-2.2,0.9-2.8c0-0.2-0.4-1-0.7-1.4c-0.8-1.4-1.6-2.9-0.7-4.2
			c1.1-1.5,3.4-1,5.1-0.7c0.2,0,0.4,0.1,0.5,0.1c0.7,0.1,1.4,0.5,2.3,0.8c0.6,0.3,1.5,0.7,1.9,0.7c0.3,0,1.1-0.4,1.7-0.7
			c1.4-0.7,2.9-1.3,4.2-0.8c1.3,0.5,1.8,2.2,2.3,3.9l0,0.1c0,0,0,0,0,0c0,0,1,3.7,0.4,5.6c-0.4,1.2-1.9,2.9-2.9,3.5
			c-0.9,0.5-2,0.5-3.2,0.6c-0.6,0-1.5,0.1-1.7,0.2c-0.4,0.2-1.1,0.8-1.7,1.4c-1.1,1-2.3,2.1-3.5,2.3
			C740.8,312.9,740.6,312.9,740.4,312.9z M736.2,307.6c0.1,0.4,0.3,0.9,0.4,1.1c0.6,0.7,3.1,1.5,4,1.4c0.4-0.1,1.4-1,2-1.5
			c0.9-0.8,1.7-1.6,2.5-1.9c0.7-0.3,1.7-0.4,2.7-0.4c0.6,0,1.7-0.1,1.9-0.2c0.5-0.3,1.5-1.4,1.6-1.8c0.2-0.6,0-2.5-0.4-3.9l0-0.1
			c-0.4-1.3-0.6-1.8-0.8-2.1c-0.4,0.1-1.2,0.5-1.8,0.7c-1,0.5-2,0.9-3,0.9c-0.9,0-2-0.5-3-1c-0.6-0.2-1.2-0.6-1.6-0.6
			c-0.2,0-0.4-0.1-0.6-0.1c-0.4-0.1-1.3-0.3-1.9-0.3c0.2,0.3,0.4,0.7,0.5,1c0.5,1,1,1.9,1.1,2.8c0,1.3-0.7,3.5-1.5,4.6
			c-0.4,0.5-1.1,0.9-1.7,1.2C736.6,307.3,736.3,307.5,736.2,307.6z"/>
	</g>
	<g>
		<path fill="none" stroke="#201600" stroke-miterlimit="10" d="M507,602.5c0.3,0.6,0.3,2.1,0,2.7c-0.3,0.5-1.5,1.2-2.2,1.3
			c-0.8,0.1-2.3-1.4-3.1-1.2c-0.8,0.2-1.4,2.5-2.3,2.5c-0.7,0-1.4-1.5-1.6-2.1c-0.2-0.7-0.2-2.1,0-2.7c0.2-0.6,0.7-2,1.3-2.3
			c1.1-0.6,3.8-0.4,5,0C505.1,600.8,506.6,601.8,507,602.5z"/>
		<path fill="none" stroke="#201600" stroke-miterlimit="10" d="M499.5,609.2c0,0-0.1,0-0.1,0c-1.7-0.1-2.6-2.4-2.8-3.1
			c-0.3-1-0.2-2.8,0-3.6c0,0,0.6-2.4,2-3.2c1.7-1,5.1-0.4,6.2-0.1c0.9,0.3,3,1.4,3.6,2.6c0.5,1,0.6,3,0,4c-0.6,1.1-2.3,1.9-3.3,2
			c-0.8,0.1-1.6-0.4-2.3-0.8c-0.1-0.1-0.4-0.2-0.5-0.3c-0.1,0.1-0.2,0.3-0.3,0.4C501.4,608,500.7,609.2,499.5,609.2z M500,601.8
			c-0.2,0.2-0.6,0.9-0.7,1.4c-0.1,0.5-0.1,1.6,0,1.9c0.1,0.2,0.1,0.3,0.2,0.5c0.5-0.8,1-1.6,1.9-1.8c1-0.2,1.9,0.3,2.7,0.7
			c0.2,0.1,0.6,0.3,0.7,0.4c0.3-0.1,0.8-0.4,1-0.5c0.1-0.3,0.1-1,0-1.3c-0.2-0.3-1.3-1.1-1.9-1.2C502.7,601.6,500.5,601.5,500,601.8
			z"/>
	</g>
	<g>
		<path fill="none" stroke="#201600" stroke-miterlimit="10" d="M394.8,618.3c0.6,0.8,0.6,3.3,0,4.1c-0.7,0.9-3.1,1.2-4.2,1.1
			c-1.1-0.1-3-1.6-4.1-2c-0.9-0.4-3-0.6-3.8-1.2c-1-0.7-2.6-2.8-3.1-3.9c-0.5-1.1-0.5-3.7-0.8-4.8c-0.3-1-1.7-2.8-1.6-3.9
			c0.1-1,1.1-3.1,2-3.6c1.1-0.7,3.8-0.2,5.1,0c0.7,0.1,2.1,0.5,2.6,1c0.7,0.6,1,2.6,1.4,3.4c0.5,1,1.9,2.9,2.3,4
			c0.4,1.1,0.2,3.7,0.9,4.6C392.1,617.8,394.3,617.6,394.8,618.3z"/>
		<path fill="none" stroke="#201600" stroke-miterlimit="10" d="M391,625c-0.2,0-0.5,0-0.6,0c-1-0.1-2.1-0.8-3.2-1.4
			c-0.5-0.3-1-0.6-1.3-0.7c-0.3-0.1-0.8-0.2-1.2-0.3c-1-0.2-2.1-0.5-2.8-1c-1.3-0.9-3-3.2-3.6-4.5c-0.4-0.8-0.5-2-0.6-3.2
			c-0.1-0.7-0.2-1.4-0.3-1.8c-0.1-0.2-0.3-0.7-0.6-1.2c-0.6-1.1-1.2-2.1-1.1-3.2c0.1-1.5,1.3-3.9,2.7-4.7c0.4-0.2,1.7-1,6.1-0.2
			c0.2,0,2.4,0.4,3.3,1.4c0.7,0.7,1,1.7,1.3,2.8c0.1,0.4,0.3,0.8,0.4,1c0.2,0.4,0.5,0.9,0.9,1.5c0.6,0.9,1.2,1.9,1.5,2.6
			c0.2,0.6,0.3,1.4,0.4,2.3c0,0.5,0.1,1.5,0.3,1.8c0.2,0.1,0.6,0.1,0.8,0.2c0.9,0.2,2,0.4,2.6,1.2c0.9,1.3,1,4.4,0,5.8
			C394.9,624.6,392.4,625,391,625z M381.1,605.2c-0.7,0-1,0.1-1.2,0.2c-0.4,0.3-1.2,1.8-1.3,2.4c0,0.3,0.5,1.2,0.8,1.7
			c0.3,0.6,0.6,1.2,0.8,1.7c0.2,0.6,0.3,1.5,0.4,2.3c0.1,0.8,0.2,1.9,0.4,2.3c0.4,1,1.9,2.8,2.6,3.3c0.3,0.2,1.3,0.4,1.8,0.6
			c0.6,0.1,1.2,0.3,1.6,0.5c0.5,0.2,1.1,0.5,1.7,0.9c0.6,0.3,1.6,1,2,1c0.9,0.1,2.6-0.2,2.9-0.5c0.2-0.4,0.2-1.7,0-2.3
			c-0.2-0.1-0.6-0.1-0.8-0.2c-0.9-0.2-1.8-0.3-2.4-1c-0.7-0.9-0.9-2.2-1-3.5c0-0.5-0.1-1.2-0.2-1.5c-0.2-0.5-0.7-1.4-1.2-2.1
			c-0.4-0.7-0.8-1.3-1.1-1.8c-0.2-0.4-0.4-0.9-0.5-1.4c-0.1-0.5-0.4-1.4-0.6-1.6c-0.2-0.1-1.1-0.5-1.8-0.6
			C382.7,605.3,381.8,605.2,381.1,605.2z"/>
	</g>
	<g>
		<path fill="none" stroke="#201600" stroke-miterlimit="10" d="M540.1,568.8c0.4,0.3,0.5,1.5,0.3,2c-0.2,0.7-1.3,1.7-1.9,2
			c-0.4,0.2-1.4,0.2-1.8,0c-0.4-0.2-1-1-1-1.5c-0.1-0.7,0.4-2.1,1-2.5C537.3,568.4,539.4,568.3,540.1,568.8z"/>
		<path fill="none" stroke="#201600" stroke-miterlimit="10" d="M537.6,574.4c-0.6,0-1.1-0.1-1.6-0.3c-0.8-0.4-1.7-1.6-1.8-2.6
			c-0.1-1,0.5-3.1,1.6-3.8c1.2-0.8,4-0.9,5.2,0.1c0,0,0,0,0,0c1,0.8,1,2.7,0.8,3.5c-0.3,1.2-1.8,2.5-2.7,2.9
			C538.7,574.3,538.2,574.4,537.6,574.4z M537.4,571.5c0.2,0,0.5,0,0.6,0c0.3-0.1,1-0.8,1.1-1.1c0-0.1,0-0.3,0-0.5
			c-0.4-0.1-1.2-0.1-1.6,0.1c-0.2,0.2-0.4,0.8-0.4,1.1C537.1,571.2,537.3,571.4,537.4,571.5z"/>
	</g>
	<g>
		<path fill="none" stroke="#201600" stroke-miterlimit="10" d="M512.9,651c0.1,2.1,1,6.4,0.6,8.5c-0.3,1.2-1.5,3.6-2.4,4.4
			c-0.6,0.4-2.1,1.1-2.7,0.8c-0.5-0.2-0.8-1.6-0.9-2.1c-0.1-0.6,0.3-1.9,0.3-2.6c0-1.2-0.2-3.6-0.4-4.8c-0.2-1.2-1.5-3.4-1.5-4.6
			c0-1.1,0.7-3.3,1-4.4c0.3-0.8,0.7-2.8,1.4-3.2c0.5-0.3,1.9-0.3,2.5,0c0.9,0.5,1.9,2.5,2.1,3.5C513.2,647.6,512.8,649.9,512.9,651z
			"/>
		<path fill="none" stroke="#201600" stroke-miterlimit="10" d="M508.7,666.1c-0.4,0-0.7-0.1-1.1-0.2c-1.1-0.5-1.5-2-1.6-3.2
			c-0.1-0.6,0-1.3,0.2-2c0.1-0.3,0.1-0.7,0.1-0.9c0-1.1-0.2-3.4-0.4-4.5c-0.1-0.4-0.3-1-0.6-1.6c-0.4-1.1-0.9-2.2-1-3.2
			c0-1.2,0.5-3,1.1-4.7l0.1-0.2c0.1-0.2,0.1-0.4,0.2-0.6c0.3-1.2,0.8-2.7,1.8-3.4c1-0.7,3-0.6,4-0.1c1.6,0.9,2.6,3.7,2.8,4.4
			c0.3,0.9,0.2,2.2,0.1,3.5c0,0.5-0.1,1-0.1,1.4c0,0.7,0.2,1.7,0.3,2.7c0.3,2.2,0.6,4.5,0.3,6.1c-0.3,1.4-1.6,4.2-2.9,5.2
			C511.4,665.4,510,666.1,508.7,666.1z M509,644.2c-0.2,0.4-0.5,1.3-0.6,1.8c-0.1,0.3-0.2,0.5-0.2,0.7l-0.1,0.2
			c-0.3,0.9-0.9,2.9-0.9,3.7c0,0.4,0.4,1.5,0.7,2.2c0.3,0.8,0.6,1.5,0.7,2.1c0.3,1.3,0.5,3.9,0.4,5.1c0,0.4-0.1,0.8-0.2,1.3
			c-0.1,0.3-0.2,0.9-0.1,1.1c0,0.3,0.1,0.7,0.2,0.9c0.4-0.1,0.9-0.3,1.1-0.5c0.6-0.5,1.7-2.5,1.9-3.6c0.2-1.1-0.1-3.3-0.3-5.1
			c-0.1-1.1-0.3-2.2-0.3-3c0,0,0,0,0,0c0-0.5,0-1,0.1-1.6c0-0.8,0.1-2.1,0-2.5c-0.3-1-1.1-2.4-1.5-2.7
			C509.9,644.1,509.3,644.1,509,644.2z"/>
	</g>
	<g>
		<path fill="none" stroke="#201600" stroke-miterlimit="10" d="M480.9,600.1c0.3,0.5,0.3,2,0,2.6c-0.4,0.7-2.5,0.8-3,1.5
			c-0.6,0.7-0.5,3-1.2,3.6c-0.9,0.6-3.3,0.5-4.2,0c-1-0.5-2.1-2.6-2.5-3.6c-0.4-1-0.5-3.1-0.4-4.1c0.1-1.1,0.8-3.2,1.3-4.1
			c0.5-0.8,2-1.8,2.4-2.6c0.5-0.9-0.2-4,0.8-4.2c0.8-0.1,1.3,2.2,1.7,2.8c0.5,0.7,2,1.9,2.3,2.7c0.4,1-0.5,3.3,0,4.2
			C478.6,599.5,480.5,599.5,480.9,600.1z"/>
		<path fill="none" stroke="#201600" stroke-miterlimit="10" d="M474.8,609.6c-1.1,0-2.3-0.2-2.9-0.6c-1.6-0.8-2.9-3.6-3.2-4.3
			c-0.5-1.3-0.6-3.6-0.5-4.8c0.1-1.2,0.8-3.5,1.5-4.7c0.3-0.6,0.9-1.1,1.4-1.6c0.3-0.3,0.8-0.8,1-1c0-0.1,0-0.8,0-1.2
			c0-1.3,0-3.4,1.8-3.7c1.7-0.3,2.4,1.5,2.8,2.6c0.1,0.3,0.3,0.7,0.3,0.8c0.1,0.2,0.5,0.5,0.8,0.8c0.7,0.7,1.5,1.4,1.8,2.3
			c0.3,0.8,0.2,1.7,0,2.6c0,0.3-0.1,0.8-0.1,1.1c0.2,0.1,0.4,0.1,0.5,0.2c0.8,0.2,1.7,0.5,2.2,1.3c0.6,1,0.6,3.1,0,4.1
			c-0.5,0.8-1.5,1.1-2.4,1.4c-0.2,0.1-0.6,0.2-0.8,0.3c-0.1,0.2-0.2,0.7-0.2,1c-0.2,1-0.4,2.2-1.3,2.8
			C476.8,609.4,475.8,609.6,474.8,609.6z M474.8,593c0,0.3-0.1,0.6-0.3,0.9c-0.3,0.6-1,1.2-1.6,1.8c-0.3,0.3-0.8,0.7-0.9,0.9
			c-0.4,0.7-1,2.7-1.1,3.6c-0.1,0.8,0.1,2.7,0.4,3.5c0.4,1.1,1.4,2.6,1.8,2.8c0.5,0.3,2,0.3,2.6,0.1c0.1-0.2,0.2-0.7,0.2-1
			c0.2-0.9,0.3-1.8,0.9-2.4c0.5-0.6,1.3-0.8,2.1-1.1c0.2-0.1,0.6-0.2,0.8-0.3c0-0.2,0-0.6,0-0.8c-0.2-0.1-0.4-0.1-0.6-0.2
			c-0.8-0.2-1.7-0.5-2.2-1.3c-0.6-0.9-0.4-2.1-0.2-3.2c0.1-0.4,0.2-1.1,0.1-1.3c-0.1-0.2-0.7-0.9-1.1-1.2
			C475.4,593.6,475.1,593.3,474.8,593z"/>
	</g>
	<g>
		<path fill="none" stroke="#201600" stroke-miterlimit="10" d="M394,602.3c0.3,0.8,0.4,2.7,0,3.4c-0.2,0.3-0.9,0.7-1.3,0.7
			c-1-0.1-2.8-1.4-3.2-2.3c-0.3-0.6-0.4-2.2,0-2.7c0.5-0.7,2.5-1.1,3.2-0.9C393.2,600.8,393.8,601.8,394,602.3z"/>
		<path fill="none" stroke="#201600" stroke-miterlimit="10" d="M392.7,607.8C392.7,607.8,392.6,607.8,392.7,607.8
			c-1.7-0.1-3.9-1.8-4.5-3c-0.5-1-0.7-3.1,0.1-4.2c0.9-1.2,3.6-1.8,4.9-1.3c1.2,0.4,2,2.1,2.2,2.6l0,0c0.2,0.7,0.7,3.2-0.1,4.6
			C394.7,607.2,393.6,607.8,392.7,607.8z M390.6,602.3c-0.1,0.3,0,1,0.1,1.2c0.2,0.4,1.4,1.3,1.9,1.5c0,0,0.1,0,0.1-0.1
			c0.1-0.4,0-1.6-0.2-2.2c0,0,0,0,0,0c-0.1-0.2-0.3-0.7-0.5-0.8C391.7,601.9,390.9,602.1,390.6,602.3z"/>
	</g>
	<g>
		<path fill="none" stroke="#201600" stroke-miterlimit="10" d="M487.6,629.5c0.6,0.6,0.9,2.6,0.6,3.4c-0.3,1-2.6,1.9-3,2.8
			c-0.2,0.6,0.8,2,0.4,2.5c-0.8,1.1-4,1.1-5.3,1c-1.1-0.1-3.2-1.2-4.2-1.8c-1.1-0.7-2.6-2.8-3.7-3.4c-1.5-0.7-5-0.7-6.6-0.9
			c-1.9-0.2-5.8,0.2-7.5-0.6c-0.7-0.3-1.8-1.5-2.2-2.2c-0.5-1-0.9-3.2-0.7-4.2c0.2-0.8,1-2.4,1.7-2.7c1.1-0.4,3.4,1.2,4.6,1.1
			c0.7-0.1,2.1-0.8,2.6-1.4c0.8-0.9,0.3-4.1,1.4-4.7c0.9-0.4,3,0.5,3.7,1.2c0.8,0.9,0.3,3.7,0.9,4.9c0.4,0.8,1.5,2.7,2.4,2.7
			c0.8,0,1.7-2.2,2.5-2.3c0.7-0.1,2.1,0.5,2.6,1.1c0.6,0.6,0.4,2.7,1,3.3c0.4,0.4,1.5,0.6,2.1,0.6c0.9,0,2.5-1,3.4-1.1
			C485.2,628.7,487,628.9,487.6,629.5z"/>
		<path fill="none" stroke="#201600" stroke-miterlimit="10" d="M481.9,640.7c-0.8,0-1.4-0.1-1.7-0.1c-1.5-0.2-3.9-1.4-4.8-2
			c-0.6-0.4-1.2-1-1.9-1.7c-0.5-0.6-1.3-1.3-1.7-1.5c-0.9-0.4-3.1-0.5-4.5-0.6c-0.6,0-1.2-0.1-1.7-0.1c-0.5-0.1-1.4-0.1-2.2-0.1
			c-2,0-4.3,0-5.7-0.7c-1-0.5-2.4-1.9-2.8-2.8c-0.6-1.2-1.1-3.8-0.8-5.2c0.2-1,1.2-3.2,2.6-3.8c1.2-0.5,2.4,0,3.6,0.5
			c0.4,0.2,1.2,0.5,1.4,0.5c0,0,0,0,0,0c0.4-0.1,1.4-0.6,1.7-0.9c0.1-0.2,0.2-1,0.2-1.4c0.2-1.4,0.3-2.9,1.6-3.6
			c1.7-0.9,4.5,0.5,5.4,1.6c0.8,0.9,0.8,2.2,0.9,3.5c0,0.5,0.1,1.4,0.2,1.6c0.3,0.6,0.7,1.3,1,1.6c0.1-0.1,0.1-0.2,0.2-0.3
			c0.5-0.7,1.1-1.5,2.1-1.7c1.3-0.2,3.2,0.8,3.9,1.5c0.6,0.6,0.7,1.5,0.8,2.3c0,0.3,0.1,0.7,0.2,0.9c0.3,0.1,0.8,0.2,1,0.2
			c0.2,0,0.8-0.3,1.2-0.4c0.7-0.3,1.4-0.6,2.1-0.6c0.3,0,3.2-0.1,4.4,1.1c0,0,0,0,0,0c1,1,1.3,3.6,0.9,4.9c-0.3,0.9-1.2,1.6-2,2.2
			c-0.2,0.2-0.6,0.4-0.8,0.6c0,0.1,0.1,0.2,0.1,0.3c0.3,0.7,0.6,1.7,0,2.6C485.9,640.4,483.6,640.7,481.9,640.7z M457.8,624.7
			c-0.3,0.3-0.8,1.2-0.9,1.7c-0.1,0.7,0.2,2.6,0.6,3.3c0.2,0.5,1.2,1.4,1.5,1.6c0.9,0.4,3,0.4,4.5,0.4c0.9,0,1.8,0,2.5,0.1
			c0.4,0,1,0.1,1.5,0.1c1.9,0.1,4.2,0.3,5.5,0.9c0.9,0.4,1.7,1.3,2.5,2.1c0.5,0.5,1.1,1.1,1.4,1.3c1,0.6,2.8,1.5,3.6,1.6
			c1.4,0.2,3,0,3.7-0.2c0,0,0-0.1,0-0.1c-0.2-0.6-0.5-1.4-0.3-2.1c0.3-0.9,1.2-1.5,2-2.1c0.3-0.2,0.8-0.6,1-0.8
			c0.1-0.4-0.1-1.6-0.3-1.9c-0.3-0.2-1.4-0.3-2.2-0.3c-0.2,0-0.8,0.3-1.2,0.4c-0.8,0.3-1.6,0.6-2.3,0.6c-0.7,0-2.3-0.2-3.1-1
			c-0.6-0.6-0.8-1.6-1-2.5c0-0.3-0.1-0.7-0.2-0.9c-0.2-0.2-0.7-0.4-1.1-0.5c-0.1,0.2-0.3,0.4-0.4,0.5c-0.6,0.8-1.3,1.8-2.5,1.7
			c-1.7-0.1-3-2.3-3.6-3.6c-0.4-0.7-0.4-1.7-0.5-2.7c0-0.6-0.1-1.6-0.2-1.9c-0.2-0.3-1.2-0.7-1.8-0.8c-0.1,0.4-0.2,1-0.2,1.4
			c-0.1,1.1-0.2,2.2-0.8,2.9c-0.7,0.9-2.5,1.8-3.5,1.9c-0.9,0.1-1.8-0.2-2.8-0.6C458.8,625,458.1,624.8,457.8,624.7z"/>
	</g>
	<g>
		<path fill="none" stroke="#201600" stroke-miterlimit="10" d="M386.4,1110.8c0,1.3-0.9,3.9-1.3,5.2c-0.3,1-0.8,3.3-1.6,4.1
			c-0.9,0.9-3.5,1.6-4.6,2.2c-1.5,0.9-4.2,3.6-5.8,4.2c-1.2,0.5-4,0.9-5.3,0.7c-1.7-0.2-4.9-1.6-6.2-2.7c-1-1-1.6-4-2.6-5
			c-0.8-0.8-3.1-1.5-4-2.1c-1.1-0.7-3.3-2.2-4.1-3.2c-1.2-1.4-2.3-5-3.4-6.4c-1-1.3-4.1-2.9-5-4.3c-0.8-1.4-1.1-4.7-1.2-6.3
			c-0.1-1.8,0-5.6,0.7-7.3c0.6-1.5,2.7-4.4,4.2-5.1c1.4-0.7,4.6-0.2,6.2,0c1.2,0.2,3.6,0.7,4.6,1.4c0.8,0.6,1.4,2.9,2.4,3.4
			c1.1,0.6,3.9,0.3,5.1-0.2c0.7-0.3,1.5-1.6,2.2-1.9c0.7-0.2,2.2-0.2,2.9,0c1,0.4,2.6,1.9,3.3,2.7c1,1.3,1.9,4.7,3,5.9
			c1.1,1.2,4.5,2.2,5.7,3.4c1.3,1.4,2.9,5,3.6,6.7C385.5,1107.4,386.3,1109.6,386.4,1110.8z"/>
		<path fill="none" stroke="#201600" stroke-miterlimit="10" d="M368.5,1128.7c-0.4,0-0.7,0-1-0.1c-1.9-0.3-5.5-1.7-7-3.1
			c-0.8-0.7-1.2-1.9-1.7-3.1c-0.3-0.7-0.7-1.7-1-2c-0.3-0.3-1.3-0.7-2-1c-0.7-0.3-1.3-0.6-1.8-0.9c-1.2-0.8-3.4-2.3-4.4-3.5
			c-0.7-0.9-1.3-2.2-2-3.6c-0.5-1.1-1-2.2-1.4-2.8c-0.3-0.4-1.2-1.1-2-1.6c-1.2-0.9-2.5-1.8-3.1-2.9c-1.1-2-1.4-6.4-1.4-6.9
			c-0.1-1.5-0.1-5.7,0.8-7.9c0.6-1.5,2.9-4.9,4.9-5.9c1.3-0.6,3.4-0.6,7-0.1c0.4,0.1,3.7,0.6,5.2,1.7c0.6,0.5,1.1,1.2,1.5,2.1
			c0.2,0.4,0.5,1,0.7,1.2c0.7,0.3,2.9,0.1,3.9-0.3c0.1-0.1,0.4-0.4,0.6-0.6c0.5-0.5,1-1,1.6-1.3c1-0.4,2.8-0.4,3.8,0
			c1.5,0.5,3.3,2.4,3.9,3.2c0.6,0.8,1.1,1.9,1.6,3.1c0.4,1,0.9,2.3,1.4,2.7c0.4,0.4,1.5,0.9,2.4,1.4c1.3,0.6,2.5,1.2,3.2,2
			c1.4,1.4,2.8,4.7,3.9,7.2c0.9,2.3,1.4,4,1.4,5c0,1.3-0.5,3.1-1.2,5c-0.1,0.2-0.2,0.5-0.2,0.7c-0.1,0.2-0.1,0.5-0.2,0.8
			c-0.5,1.6-0.9,3-1.7,3.8c-0.8,0.8-2.1,1.3-3.4,1.8c-0.6,0.2-1.2,0.5-1.5,0.6c-0.5,0.3-1.4,1-2.1,1.6c-1.3,1.1-2.7,2.2-3.9,2.7
			C372.4,1128.3,370.2,1128.7,368.5,1128.7z M348.4,1085.9c-1,0-1.4,0.1-1.6,0.2c-1,0.5-2.9,3-3.5,4.4c-0.5,1.3-0.7,4.7-0.6,6.6
			c0.1,2.1,0.5,4.7,1,5.6c0.3,0.5,1.4,1.4,2.3,2c1,0.7,1.9,1.4,2.5,2.1c0.6,0.8,1.2,2.1,1.8,3.4c0.5,1.1,1.1,2.4,1.6,3
			c0.5,0.6,2,1.8,3.8,2.9c0.3,0.2,0.8,0.4,1.4,0.7c1.1,0.5,2.2,1,2.9,1.6c0.7,0.7,1.1,1.8,1.6,3c0.3,0.7,0.7,1.8,1,2.1
			c1,0.9,4,2.2,5.4,2.4c1,0.1,3.5-0.2,4.6-0.6c0.8-0.3,2.1-1.4,3.1-2.3c0.9-0.7,1.8-1.5,2.5-1.9c0.5-0.3,1.2-0.6,2-0.9
			c0.7-0.3,2-0.8,2.3-1.1c0.4-0.4,0.8-2,1-2.7c0.1-0.3,0.2-0.6,0.3-0.8c0.1-0.2,0.1-0.4,0.2-0.7c0.4-1.1,1-3.2,1-4.1c0,0,0,0,0,0
			c0-0.5-0.3-1.8-1.2-4c-1.3-3.1-2.5-5.4-3.3-6.3c-0.4-0.4-1.5-0.9-2.4-1.4c-1.3-0.6-2.5-1.2-3.3-2c-0.8-0.8-1.3-2.2-1.9-3.6
			c-0.4-0.9-0.8-2-1.2-2.4c-0.7-0.8-2.1-2.1-2.7-2.3c-0.3-0.1-1.4-0.1-1.8,0c-0.1,0.1-0.4,0.4-0.6,0.6c-0.5,0.5-1,1-1.6,1.3
			c-1.3,0.5-4.6,1-6.3,0.1c-0.9-0.5-1.4-1.4-1.9-2.4c-0.2-0.4-0.5-1-0.7-1.1c-0.6-0.4-2.5-0.9-4-1.1
			C350.4,1085.9,349.2,1085.9,348.4,1085.9z"/>
	</g>
	<g>
		<path fill="none" stroke="#201600" stroke-miterlimit="10" d="M1546.6,461.6c0.6,1.1-0.7,3.8-1.6,4.8c-0.7,0.8-2.8,1.4-3.8,1.8
			c-1.6,0.6-4.8,1.3-6.4,1.8c-2.5,0.7-7.9,1.4-9.9,3c-1.6,1.2-3.3,5-4,6.9c-0.8,2.2-1.6,7-1.4,9.4c0.2,1.5,2.2,4.1,2.1,5.7
			c-0.1,1.4-2.1,3.7-2.8,4.9c-0.9,1.5-2.9,4.4-3.7,6c-2.1,4.2-5.4,12.9-6.8,17.3c-0.9,2.9-2.2,9-3,12c-0.7,2.9-1.6,9-3.1,11.5
			c-2.4,3.8-10.6,8.5-13.4,12c-3.8,4.8-8.3,16.5-11.8,21.6c-2.1,3-7.2,8.1-9.4,11c-2.3,3-7.2,9.1-8.5,12.7c-0.9,2.6,0.2,8.7-1,11.1
			c-1.3,2.6-6.8,5.4-8.7,7.6c-1.8,2.2-5.5,6.9-5.7,9.7c-0.1,1.4,2.3,3.8,2.1,5.1c-0.3,1.8-3.4,4.4-4.7,5.7c-1.6,1.5-5.7,3.4-7.1,5.1
			c-1.6,1.9-3,7-4.2,9.2c-1.8,3.3-5.6,9.9-7.8,12.9c-2.3,3.1-9.1,7.8-10.4,11.5c-0.8,2.3-0.4,7.6,0.5,9.9c0.7,1.8,4.4,4,5.1,5.8
			c0.8,2.2,0.7,7.2-0.2,9.4c-0.8,1.9-5.1,4-5.7,6c-0.8,2.4,1.2,7.6,0.9,10.1c-0.2,1.6-1.4,4.9-2.4,6.2c-0.9,1.1-3.9,2.1-4.9,3.2
			c-0.8,1-2.1,3.3-2.3,4.6c-0.4,2.3,1.2,7,1.4,9.4c0.2,2.6,0.4,7.7,0,10.2c-0.3,1.8-1.2,5.5-2.1,7.1c-1.8,3-7.4,7.5-9.7,10.1
			c-2,2.3-6,6.9-7.8,9.4c-2.2,3-6.7,9-7.8,12.5c-1.2,4-0.7,12.5-0.7,16.6c0,6.5,0.5,19.5,1.2,26c0.5,4.7,2.1,14.1,3.5,18.6
			c0.6,1.8,1.9,5.5,3.1,6.9c1,1.2,3.8,2.6,5.2,3.2c1.2,0.5,4,0.9,5.2,1.4c1.3,0.5,4,1.6,5.2,2.5c1.4,1,3.1,4.5,4.7,4.8
			c1.1,0.2,2.9-2.1,4-1.9c1.4,0.2,2.7,3.4,4,3.9c0.8,0.3,2.6,0.2,3.3-0.2c0.9-0.4,1.7-2.7,2.6-3c0.9-0.3,3.1,0.3,3.8,0.9
			c1.2,0.9,1.7,4.4,2.8,5.5c1,1.1,4,2.2,5.2,3c0.6,0.4,2.1,1.3,2.4,1.9c0.5,0.9,0,3.2,0.5,4.1c0.5,0.8,2.1,2,3,2.5
			c0.7,0.4,2.4,0.6,2.8,1.2c0.3,0.6-0.1,2.2-0.3,2.8c-0.3,0.9-1.4,2.7-2.3,3c-0.8,0.3-2.6-0.2-3.3-0.7c-0.6-0.5-0.7-2.5-1.4-3
			c-0.4-0.3-1.5-0.5-1.9-0.4c-0.7,0.2-1.9,1.5-2.1,2.3c-0.3,1.3,1.7,3.8,1.6,5.1c-0.1,1.1-1.2,3.1-2.1,3.7c-0.7,0.5-2.5,0.8-3.3,0.5
			c-0.7-0.2-2-1.4-2.3-2.1c-0.6-1.5,0.5-4.8,0.3-6.4c-0.1-0.8-0.1-2.6-0.7-3c-0.9-0.6-3.4,0.3-4.4,0.9c-0.8,0.5-2.1,2.1-2.4,3
			c-0.6,1.4,0,4.7-0.3,6.2c-0.4,1.4-2.5,3.8-2.6,5.3c-0.2,2.2,1,6.8,2.3,8.7c0.8,1.3,4,2.4,4.7,3.7c0.8,1.6-0.6,5.6,0.2,7.2
			c0.5,1,2.2,2.7,3.3,3c0.6,0.2,2.1,0,2.6-0.4c1-0.7,1.4-3.7,2.4-4.4c0.4-0.3,1.4-0.4,1.9-0.4c1.4,0.2,4.4,1.1,5.2,2.3
			c0.6,0.9,0.9,3.4,0.3,4.4c-0.3,0.6-1.8,1.3-2.4,1.4c-0.7,0.1-2.2-0.7-3-0.5c-0.5,0.1-1.4,0.9-1.6,1.4c-0.6,1.4,0,4.7,0.5,6.2
			c0.4,1.2,2.1,3.2,3,4.1c1,1,3.2,2.8,4.5,3.4c1.8,0.8,5.8,1.2,7.8,1.2c2.2,0,6.8-2.3,8.9-1.4c1,0.4,2.2,2.5,2.6,3.5
			c0.7,1.6,1.6,5.1,1.4,6.9c-0.2,1.4-1.7,4-2.4,5.3c-0.3,0.6-0.9,2.1-1.6,2.3c-1.1,0.3-3-2.6-4-2.1c-1.9,0.8-2.4,5.9-2.3,8
			c0.1,1.1,0.9,3.6,1.9,4.1c0.9,0.4,3-0.4,3.8-0.9c0.7-0.4,1.5-2.1,2.3-2.5c0.7-0.3,2.2-0.5,3-0.4c0.8,0.2,2.3,1.2,2.8,1.9
			c0.4,0.6,0.4,2.3,0.7,3c0.6,1.5,2,4.3,3.1,5.5c0.5,0.5,2.2,0.9,2.6,1.6c0.5,0.8,0.8,3,0.5,3.9c-0.3,0.9-1.6,2.3-2.4,2.7
			c-0.8,0.3-2.6,0.2-3.3-0.2c-0.9-0.5-1.6-2.6-2.4-3.2c-0.8-0.6-2.8-1.1-3.8-1.1c-1.7,0.1-4.7,1.7-6.1,2.7c-1.1,0.8-3.2,2.8-3.8,4.1
			c-0.9,1.7-0.8,5.6-1.4,7.4c-0.3,0.9-1,2.9-1.7,3.5c-1,0.9-4,0.9-5.2,1.4c-1.6,0.6-4.9,2.1-6.3,3.2c-1.1,0.8-2.5,3.3-3.7,4.1
			c-2,1.3-7,1.9-8.9,3.4c-2.3,1.7-5.2,6.8-6.8,9.2c-1.4,2.1-4.5,6.2-5.2,8.7c-0.3,1,0.4,3.1,0,4.1c-0.4,0.9-2.3,1.9-2.8,2.8
			c-0.9,1.8-0.8,6.1-1.6,7.9c-0.5,1.2-2.3,3-3,4.1c-1,1.5-3.3,4.6-3.8,6.4c-0.7,2.6,0.6,8,0,10.6c-0.3,1.2-1.4,3.3-2.1,4.2
			c-0.7,1-3.1,2.5-3.5,3.7c-0.7,2.2,0.4,6.9,1.2,9c0.3,0.8,1.6,2,1.9,2.8c0.5,1.3,0.5,4.4,1,5.7c0.8,1.7,3.8,4.1,4.5,5.8
			c0.9,2,1.2,6.3,1.4,8.5c0.2,2.1-0.4,6.5,0.2,8.5c0.6,1.9,3.4,4.8,4.2,6.5c0.7,1.6,2.5,5.1,1.9,6.7c-0.4,1.1-2.9,2.2-4,2.5
			c-0.7,0.2-2.2-0.3-3-0.2c-0.7,0.1-2.2,0.7-2.8,1.2c-1.1,1.1-1.5,4.5-2.6,5.5c-1.2,1.1-4.5,2.2-6.1,2.1c-1.6-0.1-4.5-1.8-5.7-2.8
			c-1.9-1.6-4.3-6-5.6-8.1c-0.9-1.5-1.9-5-3-6.4c-0.9-1.2-3.1-3.5-4.5-4.1c-1.5-0.6-4.9-0.4-6.4,0.2c-1.8,0.7-4.2,3.9-5.9,4.8
			c-2,1-6.3,2.6-8.5,2.3c-2.6-0.3-7.1-3.5-9.1-5.3c-1.9-1.7-4-6.9-6.1-8.5c-1.6-1.3-5.5-2.6-7.5-3c-2.1-0.4-6.6-0.4-8.7,0
			c-2,0.4-5.5,2.6-7.5,3.2c-2.6,0.9-8.3,1.2-10.8,2.5c-1.6,0.8-3.8,4-5.4,4.8c-1.8,0.8-5.9,1.5-7.8,1.1c-1.1-0.2-2.9-1.6-3.8-2.3
			c-1.1-0.8-3-2.9-4.2-3.4c-1.8-0.8-5.8-1.3-7.8-1.3c-2.7-0.1-8,1.8-10.6,1.2c-2.9-0.6-8.1-4.1-10.4-6c-1.6-1.4-3.9-5-5.4-6.5
			c-1.5-1.6-4.5-5.2-6.6-6c-2.2-0.9-7.3,0.8-9.6,0c-1.5-0.5-3.5-3.2-4.9-3.9c-2-1-6.5-2-8.7-2.3c-2.7-0.3-8.1,0-10.8,0
			c-1.9,0-5.8,0.7-7.7,0c-1.9-0.7-4.8-3.6-6.1-5.1c-1.3-1.5-2.7-5.3-4-6.7c-0.9-1-3.7-2-4.4-3.2c-1-2,0.5-7,0-9.2
			c-0.7-3.1-4.3-8.6-5.7-11.5c-3.6-6.9-10.4-20.9-14.6-27.4c-4-6-12.9-17.5-17.9-22.6c-5.3-5.5-17.5-14.8-23.5-19.4
			c-5.2-4-15.5-12.3-21.2-15.4c-4.3-2.3-13.5-5.3-18.1-6.9c-3-1.1-8.9-3.3-12-4.1c-3.3-0.8-10-1.6-13.4-1.8
			c-6.2-0.4-18.7-0.3-24.9,0.4c-3.6,0.4-10.6,1.8-14.1,2.7c-2.9,0.7-8.4,3.2-11.3,3.7c-3.5,0.6-10.6,0.7-14.1,0
			c-2.2-0.4-6.5-2.2-8.4-3.5c-2-1.5-4.8-5.6-6.3-7.6c-1.1-1.5-2.8-5.1-4.3-6.2c-2.3-1.6-7.9-2.6-10.6-3c-2.9-0.4-8.8,0.3-11.7,0
			c-2.3-0.2-7-1.2-9.2-1.9c-3.1-1.1-9.2-3.9-12-5.7c-3.1-2-8.5-6.8-11.1-9.4c-1.5-1.4-4.4-4.5-5.6-6.2c-1.2-1.7-2.6-5.7-4-7.2
			c-1.5-1.7-5.7-3.7-7.5-5.1c-2.4-2.1-6.6-6.9-8.9-9.2c-2.3-2.3-6.6-7.4-9.4-9c-2-1.2-6.7-2.5-9-2.8c-3-0.5-9-0.6-12-0.2
			c-2.6,0.4-7.5,3.2-10.1,3c-1.8-0.1-5.2-1.7-6.6-2.8c-1.9-1.5-4-6-5.6-7.8c-2.4-2.8-7.6-8-10.4-10.3c-2.2-1.8-6.9-5.1-9.6-6.2
			c-1.5-0.6-4.9-0.8-6.4-1.2c-1.7-0.5-5.1-1.3-6.4-2.3c-1.8-1.4-4-5.6-5.4-7.4c-1-1.3-3-4-4.3-4.9c-1.8-1.2-6.7-1.2-8.4-2.7
			c-1.3-1.1-2.2-4.5-3.1-5.8c-1.4-2.2-4.8-6.1-6.6-8c-1.7-1.8-5.7-4.9-7.3-6.9c-0.9-1.1-1.9-4-3-5c-1.6-1.5-6.2-2.4-8-3.5
			c-1.4-0.9-4-3.2-5.2-4.4c-1.6-1.5-4-5.2-5.9-6.2c-1.6-0.9-5.5-1.2-7.3-1.2c-2.1,0-6.2,1.3-8.4,1.2c-2.5-0.1-7.3-2-9.7-2.3
			c-2.1-0.2-6.3-0.1-8.4,0.2c-2,0.3-5.7,1.9-7.7,2.1c-1.3,0.2-4.2,0.6-5.4,0c-1.2-0.6-2.9-2.8-3.5-4.1c-1.2-2.5-0.6-8.5-1.9-11
			c-1.5-2.8-6.7-6.8-9-8.8c-1.4-1.2-4.4-3.6-6.1-4.6c-2.2-1.3-7-3.3-9.4-4.1c-2.9-0.9-8.8-2-11.8-2.3c-3.4-0.3-10.2,0.2-13.6,0
			c-3.5-0.2-10.4-1.5-13.9-1.6c-3.5-0.1-10.5,0.1-13.9,0.9c-3.9,0.9-11.2,4.9-15,6.4c-3.3,1.2-9.8,4.1-13.2,4.2
			c-1.3,0-3.9-0.6-5-1.2c-2.1-1.3-5.3-5.5-6.6-7.6c-1.8-2.8-3.9-9-5.2-12c-1.2-2.7-3.3-8.4-5-10.8c-1.8-2.6-6.6-6.8-9-8.7
			c-1.5-1.1-4.6-3.4-6.4-3.9c-1.9-0.5-5.9,0.1-7.8,0.3c-1.9,0.2-5.7,2.1-7.5,1.4c-0.8-0.3-1.7-2.1-2.1-2.8c-1.1-2-1.8-6.9-3.3-8.7
			c-1.3-1.6-5.7-2.9-7.1-4.4c-1-1-2.5-3.6-3-4.9c-0.8-2.4-1.2-7.4-1.4-9.9c-0.2-2.6,0.2-7.8-0.5-10.3c-0.8-2.8-3.9-8.1-5.9-10.2
			c-1.3-1.4-5.4-2.6-6.3-4.2c-0.5-1-0.5-3.6,0-4.6c0.7-1.3,3.6-2.8,4.9-3.4c1.3-0.5,4.2-0.5,5.3-1.2c0.9-0.6,2.3-2.3,2.6-3.4
			c0.5-1.6-0.2-5.1,0-6.7c0.2-1.4,1.1-4,1.6-5.3c0.6-1.5,2.3-4.2,2.8-5.7c0.5-1.3,1.4-3.9,1.2-5.3c-0.2-1.6-2.5-4.2-3.1-5.7
			c-0.8-1.7-2.6-5.2-2.4-7.1c0.1-1.3,1.8-3.5,2.4-4.6c0.8-1.4,2.5-4,3.1-5.5c0.8-1.7,2.1-5.1,2.4-6.9c0.3-1.9-0.1-5.7,0-7.6
			c0.1-2,0.4-6.2,1-8.1c0.4-1.3,2.2-3.4,2.8-4.7c0.6-1.2,2.1-3.8,1.7-5c-0.3-1-2.9-1.5-3.1-2.5c-0.2-0.7,0.7-2.1,1.2-2.5
			c0.8-0.6,3-0.3,4-0.5c1-0.2,3-0.8,3.8-1.4c1.5-1.3,3.1-5.2,4.2-6.9c1.1-1.7,3.1-5.5,4.7-6.9c1.2-1.1,4.2-2.3,5.7-2.8
			c1.5-0.5,4.8-1,6.4-1.2c1.9-0.2,5.8,0.5,7.7,0c1.4-0.4,4-2.1,5.2-3c1.9-1.4,5.5-4.7,6.6-6.7c1-1.7,0.8-6,1.9-7.6
			c0.7-1,2.9-2.1,4-2.5c1.3-0.5,4-0.8,5.4-0.7c1.8,0.2,5,2.5,6.8,2.3c1.5-0.2,4-2.2,4.9-3.4c1.3-1.6,2.9-5.7,3.1-7.8
			c0.2-1.6-0.4-4.9-1-6.4c-0.5-1.1-2.7-2.6-3.3-3.7c-0.4-0.8-1.1-2.5-1-3.4c0-1.1,0.9-3.4,1.7-4.2c0.6-0.6,2.4-1.7,3.3-1.4
			c0.6,0.2,1,1.9,1.6,2.1c0.9,0.4,2.9-0.1,3.8-0.5c1-0.5,2.4-2.8,3.5-3c1.2-0.2,3.7,0.9,4.5,1.8c0.5,0.5,1,2.1,1,2.8
			c0.1,0.9-0.3,2.9-0.9,3.7c-0.5,0.7-2.5,1-2.8,1.8c-0.4,0.9,0.3,3,0.9,3.7c1,1.3,4.7,1.8,5.8,3c0.9,1.1,1.6,4.1,1.9,5.5
			c0.7,2.9,0.7,8.8,1.6,11.7c0.7,2.3,2.8,6.5,4.2,8.5c1.2,1.8,4.1,5.1,5.9,6.4c1.7,1.2,6,2,7.8,3.1c1.9,1.1,5.2,3.9,6.6,5.6
			c1.4,1.7,2.7,6.2,4.4,7.6c1.2,1.1,4.5,2.1,6.1,2.3c1.9,0.2,5.6-0.4,7.5-0.7c3.1-0.6,9.1-2.3,12-3.5c3.7-1.6,10.2-6.5,13.8-8.5
			c3.8-2.1,12.2-5,15.7-7.8c1.7-1.3,4.7-4.5,5.4-6.5c0.4-1.1,0.1-3.4,0-4.6c-0.1-1.6-0.1-4.9-1-6.2c-0.7-1-3.7-1.2-4.3-2.3
			c-0.9-1.5-0.6-5.3,0-6.9c0.7-1.6,3.6-3.8,4.9-5.1c1-1.1,3.9-2.8,4.2-4.2c0.2-1.2-1.7-3.2-1.7-4.4c-0.1-1.2,0.6-3.7,1.4-4.6
			c1.5-1.7,6.2-2.8,8.4-3.4c2.3-0.6,7-1,9.4-0.9c1.8,0.1,5.5,0.5,7,1.6c1.5,1.2,2,5.7,3.6,6.7c1.7,1,5.9,0.7,7.8,0.2
			c1.7-0.4,4.9-2.4,6.3-3.5c1.6-1.3,4.2-4.4,5.4-6c0.8-1.1,1.7-3.8,2.8-4.6c0.9-0.7,3.1-1.3,4.2-1.4c1.4-0.2,4.2,0.7,5.6,0.4
			c0.8-0.2,2.3-1.3,3-1.9c0.9-0.8,2-3.1,3-3.7c1.5-1,5.2-1.7,7-1.6c1.5,0.1,4.7,0.9,5.6,2.1c0.7,1.1-0.6,4,0,5.1
			c0.7,1.4,3.8,2.8,5,3.7c1.3,1,4.3,2.6,5.4,3.9c1.1,1.3,2.4,4.6,3,6.2c0.7,2,1.4,6.2,1.6,8.3c0.1,1.5,0.4,4.6-0.2,6
			c-0.3,0.8-2,1.5-2.3,2.3c-0.4,1.1-0.5,3.7,0,4.8c0.8,1.8,4.2,4.1,5.9,4.9c2.6,1.3,8.3,2.2,11.1,2.8c2.2,0.5,6.6,1.6,8.9,1.6
			c2.6,0,7.6-1.3,10.1-2.1c2-0.7,6.1-2.1,7.7-3.5c1-1,1.2-4.3,2.4-5c1.4-0.8,5.1-0.1,6.6,0.5c0.9,0.4,2.6,1.8,3.1,2.7
			c0.8,1.3,0.7,4.6,1.2,6c0.3,0.9,1.5,2.3,1.7,3.2c0.8,2.7,0.2,8.6,0.9,11.3c0.4,1.4,1.4,4.2,2.4,5.3c1.6,1.7,5.9,3.3,8,4.2
			c1.5,0.7,4.9,1.3,6.3,2.1c2.1,1.3,5.2,5.5,7.1,7.1c2.3,1.9,7,5.5,9.7,6.7c2.8,1.3,9,2.4,12,2.8c1.9,0.3,6.3-0.9,7.8,0.4
			c1,0.8,0.7,4,1.6,4.9c0.9,0.9,3.6,1.5,4.9,1.8c3.3,0.8,10.2,1.8,13.6,1.5c3-0.2,8.8-2.3,11.7-3.1c3-0.8,9.2-2.2,12.2-3.4
			c4.3-1.7,12.5-6.3,16.5-8.7c2.3-1.3,6.8-4.1,8.9-5.8c1.5-1.2,3.8-4.4,5.4-5.4c2-1.2,6.6-2.3,8.9-2.6c2.5-0.4,7.6,0.5,10.1-0.2
			c2.4-0.6,6.4-4.8,8.9-4.8c1.9,0,5.1,2.9,6.8,3.9c1.5,0.9,4.1,3.2,5.7,3.7c2,0.6,6.4-0.9,8.4-0.2c1.5,0.6,3,4,4.5,4.4
			c2,0.5,6-1.1,7.8-1.9c1.7-0.8,4.5-3.7,6.3-4.2c2-0.6,6.2-0.5,8.2,0c2.4,0.6,6.4,3.6,8.7,4.4c3.6,1.2,11.2,2.5,15,2.8
			c4.2,0.4,12.7,0.4,16.9,0c2.6-0.3,7.8-1.5,10.4-2.1c2.8-0.6,8.3-1.9,11-2.7c1.7-0.5,5.2-1.5,6.8-2.3c2.5-1.2,6.5-5.2,9-6.4
			c2.2-1,7.1-2,9.6-2.1c3.4-0.1,10,2.2,13.4,2.1c2.4-0.1,7-1.4,9.2-2.1c2.1-0.6,6.2-2.1,8.2-3c2.4-1.1,6.7-4,9-5.1
			c2.7-1.2,8.3-3.2,11.1-3.9c1.8-0.5,5.6-0.8,7.5-1.2c1.3-0.3,3.9-1,5.1-1.8c2.1-1.4,5.2-5.7,6.8-7.8c1.2-1.6,3.2-5.1,4.3-6.7
			c1.8-2.4,5.5-7.1,7.5-9.4c2.1-2.4,7.1-6.7,8.9-9.4c0.8-1.3,1.3-4.7,2.4-5.7c0.9-0.7,3.4-1.4,4.5-1.1c1.4,0.4,3,3.4,4.4,4.1
			c1.8,0.8,6,1.1,8,0.9c2.6-0.3,7.3-2.7,9.7-3.5c2.9-0.9,8.8-2.7,11.8-3.4c2.1-0.5,6.7-0.4,8.7-1.4c1.5-0.8,3.6-3.8,5-4.8
			c1.1-0.8,3.5-2.1,4.9-2.3c1.3-0.2,4,0.6,5.2,1.1c1.7,0.7,5,2.5,6.3,3.9c1,1.1,1.5,4.4,2.6,5.5c1.1,1.1,4.2,2.2,5.7,2.5
			c2.4,0.5,7.4-0.1,9.9-0.2c1.8,0,5.5-0.4,7.3-0.2c1.7,0.2,5.2,1,6.6,1.9c1.1,0.7,2.8,2.8,3.5,3.9c1.1,1.6,1.7,5.9,3.3,6.9
			c1,0.6,3.4,0,4.5,0c1.2,0,3.7,0.3,4.9,0c1.2-0.3,3.5-1.6,4.5-2.3c1.4-1,3.8-3.6,5.2-4.4c2.1-1.3,7-2.4,9.2-3.5
			c2.2-1.1,6.5-3.8,8.4-5.5c2.3-2,6.1-6.7,7.8-9.2c1.7-2.6,4.8-8,5.7-11c0.9-2.7,1.6-8.5,1.7-11.3c0.1-2.2,0.2-6.7-0.5-8.8
			c-0.3-0.9-1.8-2.1-2.1-3c-0.2-0.8-0.5-2.6,0-3.2c0.6-0.7,2.9-0.8,3.8-0.5c0.9,0.2,2.6,1.5,3.1,2.3c0.7,1,1.3,3.5,1.4,4.8
			c0.1,1.7-0.4,5.1-0.7,6.7c-0.4,1.9-2.6,5.4-2.3,7.2c0.2,1.3,2.2,3.5,3.3,4.2c1.2,0.8,4,1.4,5.4,1.6c1.9,0.3,5.9,0.5,7.8,0
			c1.9-0.5,4.8-3.4,6.6-4.1c3.6-1.3,11.4-1.3,15-2.6c3.2-1.2,8.7-5.4,11.7-7.2c3.3-2,9.9-6,13.1-8.1c4.4-3,13-9.1,16.9-12.6
			c1.8-1.6,4.4-6.2,6.6-7.2c1.9-0.8,6.1-0.1,8.2,0c2.2,0.1,6.8,0.2,8.9,1.1c2.4,1,5.9,5.4,8.4,6.4c1.8,0.7,5.7,0.8,7.7,0.9
			c2.1,0.1,6.4-0.3,8.5,0C1543.7,460.5,1546.1,460.6,1546.6,461.6z"/>
		<path fill="none" stroke="#201600" stroke-miterlimit="10" d="M1386.2,1146.5c-0.1,0-0.2,0-0.3,0c-2.1-0.1-5.4-2.1-6.6-3.2
			c-1.8-1.6-3.9-5-5.9-8.5c-0.4-0.7-0.8-1.8-1.3-2.8c-0.5-1.3-1.1-2.7-1.6-3.4c-1-1.3-3-3.2-3.9-3.6c-1.1-0.4-4.2-0.3-5.4,0.2
			c-0.7,0.3-1.8,1.4-2.7,2.2c-1.1,1-2.1,2-3,2.5c-1.9,1-6.7,2.8-9.4,2.4c-3.2-0.4-8.1-4.1-9.8-5.7c-1.1-1-2-2.6-3.1-4.3
			c-1-1.6-2-3.4-2.9-4.1c-1.4-1.1-5.1-2.4-6.9-2.7c-2-0.4-6.3-0.4-8.1,0c-1,0.2-2.6,1-4,1.7c-1.2,0.6-2.4,1.2-3.3,1.5
			c-1.2,0.4-2.8,0.7-4.6,0.9c-2.2,0.4-4.8,0.8-6,1.4c-0.6,0.3-1.5,1.2-2.2,2c-1.1,1.2-2.1,2.3-3.2,2.8c-2,0.9-6.4,1.6-8.7,1.2
			c-1.1-0.2-2.5-1.2-3.9-2.2c-0.2-0.1-0.3-0.2-0.5-0.3c-0.5-0.4-1.1-0.9-1.7-1.5c-0.7-0.7-1.7-1.6-2.2-1.8c-1.5-0.7-5.3-1.2-7.3-1.2
			c-1,0-2.6,0.3-4.2,0.6c-2.4,0.5-4.9,1-6.7,0.6c-3.4-0.7-8.9-4.5-11.1-6.3c-1.1-0.9-2.3-2.5-3.4-4.1c-0.8-1-1.5-2-2.1-2.6
			c-0.3-0.3-0.6-0.6-0.9-1c-1.4-1.5-3.8-4.1-5.2-4.6c-0.8-0.3-2.6-0.1-4.2,0.1c-2,0.2-3.9,0.4-5.3-0.1c-1.1-0.4-2.1-1.4-3.2-2.4
			c-0.7-0.6-1.4-1.3-1.8-1.6c-1.8-0.9-6.1-1.9-8.2-2.2c-1.7-0.2-4.9-0.1-7.5-0.1c-1.2,0-2.3,0.1-3.1,0.1c-0.5,0-1.3,0.1-2.1,0.1
			c-2.1,0.2-4.5,0.4-6.1-0.2c-2.8-1-6.6-5.5-6.7-5.5c-0.7-0.8-1.4-2.1-2.1-3.5c-0.6-1.2-1.3-2.6-1.9-3.2c-0.2-0.3-1-0.7-1.5-1
			c-1.2-0.7-2.5-1.4-3-2.5c-0.8-1.5-0.5-3.8-0.3-6c0.2-1.4,0.3-2.8,0.1-3.6c-0.5-2.1-2.5-5.5-4-8.3c-0.6-1.1-1.2-2.1-1.6-2.9
			c-0.8-1.5-1.7-3.4-2.8-5.4c-3.6-7.1-8.5-16.9-11.8-21.9c-3.8-5.8-12.7-17.3-17.7-22.4c-5-5.1-16.2-13.8-22.2-18.4l-1.2-0.9
			c-0.7-0.5-1.5-1.2-2.4-1.8c-5.5-4.3-13.8-10.8-18.7-13.4c-3.2-1.7-9.6-3.9-14.2-5.5c-1.4-0.5-2.6-0.9-3.7-1.3
			c-0.5-0.2-1.1-0.4-1.8-0.6c-3-1.1-7.6-2.8-10.1-3.4c-3-0.7-9.7-1.5-13.2-1.7c-6.1-0.3-18.5-0.3-24.7,0.4
			c-3.4,0.3-10.4,1.7-13.9,2.6c-1.1,0.3-2.8,0.9-4.5,1.5c-2.5,0.9-5.1,1.9-6.9,2.2c-3.7,0.6-11,0.7-14.6,0c-2.4-0.5-6.9-2.3-8.9-3.8
			c-1.7-1.3-3.8-4.1-5.4-6.3c-0.4-0.6-0.8-1.1-1.1-1.5c-0.5-0.6-0.9-1.4-1.4-2.3c-0.8-1.3-1.8-3.1-2.6-3.6c-1.8-1.2-6.5-2.3-10-2.8
			c-1.4-0.2-3.7-0.1-5.9,0c-2.2,0.1-4.2,0.2-5.7,0c-2.3-0.2-7.1-1.2-9.5-2c-3.1-1-9.3-3.9-12.3-5.8c-3.3-2.1-9.1-7.4-11.4-9.5
			c-1.5-1.5-4.5-4.6-5.7-6.4c-0.6-0.8-1.2-2.1-1.8-3.3c-0.7-1.4-1.5-3.1-2.1-3.8c-0.7-0.8-2.5-1.8-4-2.8c-1.3-0.8-2.5-1.5-3.4-2.2
			c-1.6-1.3-3.9-3.8-5.9-6c-1.2-1.3-2.3-2.5-3.1-3.3c-0.6-0.6-1.4-1.4-2.2-2.3c-2.1-2.3-5.1-5.4-7-6.5c-1.8-1.1-6.3-2.3-8.5-2.6
			c-2.9-0.5-8.8-0.6-11.6-0.2c-1,0.1-2.5,0.7-3.9,1.3c-2.3,0.9-4.6,1.8-6.4,1.7c-2.1-0.1-5.8-1.8-7.4-3.1c-1.3-1-2.6-3.1-3.8-5
			c-0.7-1.2-1.4-2.3-2-2.9c-2.3-2.6-7.4-7.8-10.3-10.1c-2.3-1.8-6.8-5-9.2-6c-0.7-0.3-2.2-0.5-3.5-0.7c-1.1-0.2-2.1-0.3-2.8-0.5
			l-0.7-0.2c-2.5-0.7-4.9-1.4-6.2-2.3c-1.4-1-2.7-3.1-4-5.1c-0.6-1-1.2-1.9-1.7-2.5c-0.2-0.3-0.4-0.6-0.7-0.9
			c-0.9-1.2-2.4-3.1-3.3-3.7c-0.6-0.4-2.1-0.7-3.4-1c-2-0.4-3.9-0.8-5.1-1.8c-1-0.9-1.7-2.5-2.4-4.1c-0.3-0.8-0.7-1.6-1-2
			c-1.4-2-4.7-5.9-6.5-7.8c-0.7-0.7-1.8-1.7-3-2.7c-1.7-1.5-3.4-3-4.4-4.2c-0.5-0.6-0.9-1.5-1.4-2.4c-0.4-0.9-1-2-1.4-2.4
			c-0.7-0.6-2.5-1.3-4.1-1.8c-1.4-0.5-2.8-1-3.7-1.6c-1.4-0.9-3.7-3-5.4-4.6c-0.6-0.6-1.4-1.5-2.1-2.4c-1.1-1.4-2.5-3.1-3.5-3.6
			c-1.3-0.7-4.7-1.1-6.7-1.1c0,0,0,0,0,0c-0.9,0-2.3,0.3-3.7,0.6c-1.8,0.4-3.4,0.7-4.7,0.7c-1.5-0.1-3.6-0.7-5.6-1.3
			c-1.6-0.5-3.2-0.9-4.2-1c-1.9-0.2-6-0.1-8,0.2c-0.8,0.1-2.2,0.6-3.5,1c-1.6,0.5-3,1-4.1,1.1c-2.2,0.3-4.7,0.6-6.2-0.1
			c-1.7-0.8-3.6-3.5-4.2-4.8c-0.7-1.5-0.9-3.6-1-5.8c-0.2-1.9-0.3-4.1-0.9-5.1c-1.1-2.1-4.8-5.1-7.2-7.2c-0.6-0.5-1.1-0.9-1.5-1.2
			c-1.5-1.3-4.4-3.6-5.9-4.4c-2.2-1.3-6.8-3.2-9.1-3.9c-2.8-0.9-8.7-2-11.5-2.2c-1.8-0.2-4.6-0.1-7.4,0c-2.3,0.1-4.5,0.1-6.1,0
			c-1.7-0.1-4-0.4-6.4-0.8c-2.8-0.4-5.6-0.8-7.5-0.8c-3.8-0.1-10.5,0.1-13.6,0.8c-2.2,0.5-5.9,2.2-9,3.7c-2.2,1-4.2,2-5.8,2.6
			c-0.7,0.2-1.5,0.6-2.3,0.9c-3.7,1.5-8.3,3.3-11.3,3.4c-1.5,0.1-4.4-0.6-5.8-1.4c-2.7-1.6-6.1-6.5-7.1-8.1
			c-1.2-1.9-2.6-5.3-3.7-8.4c-0.6-1.5-1.1-2.9-1.6-3.8c-0.3-0.7-0.7-1.7-1.1-2.7c-1.1-2.6-2.6-6.2-3.8-7.9c-1.7-2.3-6.2-6.4-8.8-8.4
			c-2.6-2-4.8-3.4-5.9-3.6c-1.4-0.4-4.5,0-6.3,0.3c-0.4,0-0.7,0.1-1,0.1c-0.5,0.1-1.4,0.3-2.3,0.6c-2.1,0.7-4.3,1.3-5.9,0.7
			c-1.1-0.4-1.9-1.8-2.7-3.2l-0.1-0.3c-0.5-1-1-2.4-1.4-3.9c-0.5-1.7-1.1-3.7-1.7-4.5c-0.5-0.6-2-1.4-3.3-2
			c-1.5-0.7-2.9-1.4-3.8-2.3c-1.2-1.2-2.7-3.9-3.3-5.5c-0.8-2.2-1.1-6-1.3-8.9c0-0.5-0.1-1-0.1-1.4c-0.1-1-0.1-2.4-0.1-3.8
			c0-2.3,0-4.8-0.4-6.2c-0.8-2.6-3.7-7.6-5.6-9.7c-0.4-0.4-1.5-1-2.4-1.5c-1.7-0.9-3.4-1.7-4.1-3.1c-0.8-1.4-0.8-4.5,0-5.9
			c0.9-1.6,3.5-3.1,5.6-4c0.7-0.3,1.7-0.5,2.7-0.6c0.8-0.1,2-0.3,2.4-0.5c0.6-0.4,1.8-1.9,2-2.6c0.2-0.6,0.1-2.1,0-3.3
			c-0.1-1.2-0.2-2.3-0.1-3.2c0.2-1.5,1.1-4.2,1.7-5.6c0.3-0.8,0.8-1.8,1.4-2.8c0.6-1,1.1-2.1,1.4-2.8c0.3-0.9,1.3-3.6,1.2-4.6
			c-0.1-0.7-1-2-1.6-3c-0.6-0.8-1.1-1.6-1.4-2.3c-0.1-0.3-0.3-0.6-0.4-0.9c-1.2-2.6-2.3-5-2.1-6.8c0.1-1.3,1.1-2.8,1.9-4.1
			c0.3-0.4,0.5-0.8,0.7-1.1c0.3-0.5,0.7-1.3,1.2-2c0.7-1.2,1.5-2.5,1.9-3.4c0.8-1.7,2.1-5,2.3-6.5c0.2-1,0.1-2.7,0-4.2
			c-0.1-1.2-0.1-2.4,0-3.2l0-0.3c0.2-3,0.5-6.3,1.1-8.2c0.3-0.9,1-2,1.7-3c0.5-0.7,0.9-1.4,1.1-1.8c0.1-0.2,0.3-0.6,0.4-0.9
			c0.3-0.7,1.2-2.3,1.2-3c-0.2-0.1-0.6-0.3-0.8-0.5c-1-0.5-2.1-1.1-2.3-2.2c-0.3-1.5,1-3.4,1.8-3.9c0.9-0.6,2.1-0.7,3.3-0.7
			c0.4,0,1,0,1.2-0.1c1.8-0.5,2.9-0.8,3.3-1.1c0.8-0.7,1.8-2.7,2.6-4.2c0.5-0.9,0.9-1.8,1.3-2.4c0.3-0.4,0.6-1,1-1.6
			c1.2-2,2.7-4.4,4-5.6c1.6-1.4,5.1-2.7,6.2-3.1c1.7-0.6,5.1-1.1,6.8-1.3c0.9-0.1,2.1,0,3.3,0.1c1.4,0.1,3.3,0.2,4.1,0
			c1.1-0.3,3.5-1.8,4.7-2.8c1.9-1.5,5.3-4.5,6.2-6.3c0.3-0.6,0.5-1.9,0.7-3.1c0.3-1.8,0.5-3.6,1.3-4.7c1-1.3,3.6-2.6,4.7-3
			c1.5-0.5,4.5-0.9,6-0.8c1,0.1,2.2,0.6,3.4,1.2c1,0.5,2.5,1.2,3,1.1c0.9-0.1,3.1-1.8,4-2.8c1.1-1.4,2.6-5.2,2.8-7
			c0.1-1.4-0.3-4.4-0.9-5.6c-0.2-0.3-0.9-1-1.4-1.5c-0.7-0.7-1.4-1.4-1.8-2.1c-0.4-0.7-1.3-2.8-1.2-4.1c0.1-1.4,1.1-4.1,2.1-5.2
			c0.7-0.7,3-2.3,4.7-1.8c0.9,0.2,1.4,1.1,1.7,1.8c0.1,0.1,0.1,0.3,0.2,0.4c0.5,0,1.8-0.2,2.5-0.5c0.2-0.1,0.7-0.7,1-1
			c0.8-0.9,1.7-1.9,2.8-2.1c1.8-0.3,4.7,1.1,5.8,2.2c0.9,0.9,1.4,2.9,1.5,3.7c0.1,1.2-0.3,3.5-1.1,4.6c-0.5,0.6-1.2,1-1.9,1.3
			c-0.2,0.1-0.6,0.2-0.7,0.4c0,0.5,0.4,1.8,0.7,2.2c0.3,0.3,1.5,0.8,2.3,1.1c1.4,0.5,2.7,1,3.4,1.9c1,1.2,1.6,3.4,2.1,5.7l0.1,0.4
			c0.3,1.4,0.5,3.4,0.7,5.5c0.2,2.3,0.4,4.7,0.8,6.1c0.7,2.2,2.8,6.3,4,8.1c1.1,1.7,3.9,4.9,5.5,6c0.8,0.5,2.4,1,3.8,1.5
			c1.5,0.5,3,1,3.9,1.5c1.9,1.1,5.4,4,7,5.9c0.7,0.9,1.4,2.2,2,3.7c0.7,1.4,1.5,3.2,2.2,3.7c0.9,0.8,3.8,1.8,5.4,2
			c1.5,0.2,4.7-0.3,7-0.7c2.9-0.6,8.9-2.2,11.7-3.4c2.1-0.9,5.3-3.1,8.1-4.9c2.1-1.4,4-2.7,5.5-3.5c1.5-0.8,3.6-1.8,5.9-2.8
			c3.6-1.6,7.6-3.3,9.6-4.9c1.6-1.3,4.4-4.3,4.9-5.9c0.2-0.7,0-2.7,0-3.5l0-0.4c0-0.3,0-0.7-0.1-1.1c-0.1-1.2-0.2-3.7-0.7-4.4
			c-0.2-0.1-1-0.4-1.4-0.6c-1.2-0.4-2.4-0.8-3-1.8c-1.2-2.1-0.8-6.5-0.1-8.1c0.6-1.5,2.3-3,3.8-4.3c0.5-0.5,1-0.9,1.4-1.2
			c0.4-0.4,0.9-0.8,1.5-1.3c0.7-0.6,2.1-1.7,2.3-2.2c0-0.3-0.5-1-0.7-1.5c-0.5-0.9-1-1.8-1-2.6c-0.1-1.4,0.6-4.3,1.8-5.6
			c1.6-1.8,5.5-2.9,9.1-3.8c2.5-0.6,7.4-1.1,9.8-0.9c2.6,0.2,6.1,0.6,7.7,1.9c1.1,0.8,1.6,2.3,2.2,3.9c0.3,0.9,0.9,2.5,1.3,2.7
			c1.1,0.6,4.6,0.5,6.7,0c1.5-0.4,4.4-2.2,5.7-3.3c1.4-1.1,3.9-4.1,5.1-5.7c0.2-0.3,0.6-1,0.9-1.6c0.6-1.3,1.3-2.6,2.2-3.3
			c1.2-1,3.8-1.6,4.9-1.7c0.8-0.1,1.8,0,2.9,0.2c0.9,0.1,2,0.3,2.5,0.2c0.4-0.1,1.6-0.9,2.4-1.6c0.2-0.2,0.6-0.8,1-1.4
			c0.7-1,1.3-2,2.2-2.5c1.8-1.1,5.8-1.9,7.8-1.8c1.1,0.1,5.3,0.7,6.6,2.7c0.7,1,0.5,2.4,0.3,3.7c-0.1,0.5-0.2,1.4-0.1,1.7
			c0.3,0.6,2,1.6,3,2.2c0.6,0.4,1.2,0.7,1.6,1c0.4,0.3,0.9,0.6,1.5,1c1.5,1,3.3,2.1,4.1,3.1c1.4,1.7,2.8,5.5,3.2,6.7
			c0.7,2.1,1.5,6.5,1.6,8.6l0,0.2c0.2,2.4,0.3,4.9-0.3,6.4c-0.3,0.7-0.9,1.2-1.6,1.7c-0.2,0.2-0.6,0.5-0.7,0.6
			c-0.3,0.8-0.3,2.9,0,3.6c0.6,1.3,3.5,3.4,5.3,4.3c1.8,0.9,5.7,1.7,8.6,2.3c0.8,0.2,1.6,0.3,2.2,0.4c0.4,0.1,1,0.2,1.5,0.3
			c2.1,0.5,5.4,1.3,7,1.2c2.3,0,7.2-1.2,9.7-2c1.6-0.5,5.8-1.9,7.1-3.2c0.2-0.2,0.5-1.2,0.7-1.7c0.4-1.4,0.9-2.8,2-3.5
			c2.2-1.2,6.5-0.1,7.9,0.4c1.1,0.5,3.1,2,3.8,3.3c0.6,1,0.8,2.5,0.9,4c0.1,0.9,0.2,1.8,0.4,2.2c0.1,0.3,0.4,0.8,0.7,1.2
			c0.5,0.7,0.9,1.4,1.1,2.1c0.5,1.6,0.5,3.8,0.5,6.2c0,1.9,0.1,4,0.4,5.1c0.4,1.6,1.4,4,2.1,4.7c1.1,1.2,4.7,2.7,6.6,3.5
			c0.3,0.1,0.7,0.3,0.9,0.4c0.5,0.2,1.5,0.5,2.4,0.7c1.5,0.4,3.1,0.9,4.1,1.5c1.4,0.9,3,2.7,4.6,4.4c1,1.1,2,2.2,2.7,2.8
			c2.5,2,7,5.4,9.4,6.5c2.5,1.1,8.3,2.3,11.6,2.7c0.5,0.1,1.5,0,2.5-0.1c2.3-0.2,4.6-0.4,6,0.7c1,0.8,1.2,2.1,1.4,3.5
			c0.1,0.5,0.2,1.4,0.4,1.6c0.5,0.5,2.9,1.1,3.7,1.2l0.4,0.1c3.3,0.8,10,1.7,13.1,1.5c2-0.1,5.4-1.2,8.2-2.1c1.2-0.4,2.3-0.7,3.2-1
			c0.9-0.2,2.1-0.5,3.3-0.9c3-0.7,6.7-1.7,8.7-2.5c3.9-1.5,11.2-5.6,16.3-8.6c2.9-1.7,6.9-4.2,8.7-5.6c0.5-0.4,1.3-1.3,2-2.1
			c1.2-1.3,2.4-2.7,3.5-3.4c2.4-1.4,7.4-2.5,9.4-2.8c1.3-0.2,3-0.1,4.8,0c1.9,0.1,4,0.2,5.2-0.1c0.8-0.2,2.1-1.1,3.3-2
			c2-1.4,4-2.8,5.9-2.8c1.9,0,4,1.6,6,3c0.6,0.4,1.2,0.8,1.6,1.1c0.6,0.3,1.2,0.8,1.9,1.4c1.1,0.8,2.6,2,3.5,2.2
			c0.7,0.2,2.1,0,3.4-0.2c1.9-0.3,3.7-0.5,5.1,0c1.1,0.4,1.9,1.5,2.8,2.6c0.5,0.6,1.3,1.6,1.6,1.8c0.8,0.2,3-0.2,6.9-1.9
			c0.6-0.3,1.6-1,2.5-1.8c1.3-1.1,2.7-2.2,4-2.5c2.2-0.7,6.7-0.6,8.9,0c1.5,0.4,3.4,1.5,5.2,2.5c1.3,0.8,2.7,1.6,3.6,1.9
			c3.5,1.2,10.9,2.4,14.6,2.8c4.3,0.4,12.7,0.4,16.6,0c2-0.2,5.7-1.1,8.4-1.7c0.7-0.2,1.3-0.3,1.8-0.4c5.2-1.2,9-2.1,10.9-2.6
			l0.2-0.1c1.6-0.5,4.9-1.4,6.3-2.1c1-0.5,2.5-1.7,4-2.9c1.8-1.4,3.6-2.9,5.1-3.5c2.4-1,7.4-2.2,10.1-2.2c1.9-0.1,4.4,0.5,7,1.1
			c2.4,0.5,4.8,1.1,6.4,1c2.2-0.1,6.7-1.4,8.8-2.1c2.1-0.6,6.2-2.1,8-2.9c1.1-0.5,2.7-1.5,4.3-2.5c1.7-1,3.5-2.1,4.7-2.7
			c2.7-1.2,8.4-3.2,11.4-4c1-0.3,2.4-0.4,3.9-0.6c1.3-0.2,2.7-0.4,3.6-0.6c1-0.3,3.7-1,4.6-1.6c1.8-1.2,4.5-4.9,6-6.9l0.4-0.6
			c0.6-0.8,1.4-2.2,2.2-3.5c0.8-1.2,1.5-2.4,2.1-3.2c1.9-2.6,5.7-7.3,7.6-9.5c0.8-1,2.1-2.2,3.4-3.5c2-2,4.3-4.2,5.3-5.7
			c0.2-0.4,0.5-1.3,0.8-2c0.5-1.5,1-3.1,2-3.9c1.3-1.1,4.3-1.8,5.8-1.3c1.2,0.3,2.2,1.5,3.1,2.6c0.5,0.6,1.2,1.4,1.5,1.5
			c1.4,0.7,5.3,1,7.2,0.8c1.4-0.2,4-1.3,6-2.1c1.3-0.5,2.5-1.1,3.4-1.4c3.1-1,9-2.7,12-3.4c0.9-0.2,2.1-0.3,3.3-0.4
			c1.8-0.2,4-0.4,5-0.9c0.6-0.3,1.6-1.4,2.5-2.3c0.8-0.9,1.6-1.8,2.4-2.3c0.9-0.6,3.7-2.3,5.5-2.5c1.7-0.2,4.7,0.7,5.9,1.1
			c1.6,0.6,5.3,2.6,6.8,4.3c0.7,0.7,1.1,1.9,1.5,3.1c0.3,0.8,0.7,2,1,2.3c0.8,0.8,3.4,1.8,5,2.1c1.5,0.3,4.4,0.1,6.8,0
			c1.1-0.1,2.1-0.1,2.8-0.2c0.6,0,1.3-0.1,2.1-0.1c1.9-0.1,4-0.2,5.4-0.1c1.5,0.2,5.4,1,7.2,2.2c1.5,0.9,3.4,3.5,3.9,4.3
			c0.5,0.8,0.9,1.9,1.3,3.1c0.4,1.1,1,3,1.6,3.4c0.3,0.1,1.6,0,2.3-0.1c0.5-0.1,1.1-0.1,1.5-0.1c0.4,0,0.9,0,1.5,0.1
			c1,0.1,2.5,0.1,3.1,0c0.9-0.2,2.8-1.2,4.1-2.1c0.6-0.4,1.4-1.2,2.2-1.9c1.1-1,2.2-2,3.1-2.6c1.3-0.8,3.3-1.4,5.3-2.1
			c1.5-0.5,3.1-1,4-1.5c2.2-1.1,6.3-3.8,8.1-5.3c2.1-1.9,5.9-6.5,7.6-8.9c1.7-2.5,4.7-7.8,5.6-10.6c0.8-2.5,1.5-8.2,1.7-10.9
			c0.2-3.8,0-7-0.4-8.3c-0.1-0.2-0.5-0.7-0.8-1c-0.5-0.6-1.1-1.3-1.3-2c0-0.1-1-3.1,0.3-4.5c1.2-1.4,4.3-1.2,5.3-1
			c1.3,0.3,3.2,1.8,3.9,2.9c1,1.4,1.5,4.3,1.6,5.5c0.2,1.9-0.4,5.4-0.7,7.1c-0.2,0.8-0.6,1.8-1.1,2.9c-0.5,1.2-1.3,3.1-1.2,3.8
			c0.1,0.7,1.6,2.6,2.7,3.3c0.8,0.5,3,1.1,4.8,1.4c2,0.3,5.7,0.5,7.2,0c0.8-0.2,2-1.1,3.1-1.9c1.2-0.9,2.3-1.7,3.4-2.1
			c1.9-0.7,4.8-1.1,7.8-1.4c2.7-0.3,5.6-0.6,7.2-1.2c2.1-0.8,5.4-3.1,8.1-4.9c1.2-0.8,2.4-1.6,3.3-2.2c1-0.6,2.2-1.4,3.6-2.2
			c3.2-2,7.2-4.4,9.4-5.9c4.1-2.8,12.8-9,16.7-12.5c0.6-0.5,1.4-1.5,2.2-2.6c1.5-2,3.1-4.1,4.8-4.8c1.8-0.8,4.8-0.5,7.3-0.3
			c0.6,0.1,1.1,0.1,1.6,0.1c0.3,0,0.7,0,1.2,0.1c2.6,0.1,6.2,0.3,8.1,1.1c1.4,0.6,3,2,4.6,3.4c1.3,1.2,2.8,2.5,3.8,2.9
			c1.3,0.5,4.3,0.6,6.1,0.7c0.4,0,0.8,0,1.1,0.1c0.8,0,2,0,3.3,0c1.9-0.1,4-0.1,5.3,0.1c0.2,0,0.4,0,0.6,0.1
			c1.6,0.2,3.7,0.5,4.5,1.9c0,0,0,0,0,0c1,2-0.9,5.3-1.8,6.4c-0.8,0.9-2.2,1.4-3.8,2c-0.2,0.1-0.4,0.1-0.6,0.2
			c-1.1,0.4-2.8,0.8-4.3,1.2c-0.8,0.2-1.6,0.4-2.2,0.6c-0.8,0.2-1.8,0.4-2.8,0.6c-2.3,0.5-5.4,1.1-6.6,2.1c-1.2,0.9-2.8,4.3-3.5,6.2
			c-0.8,2.2-1.5,6.7-1.3,8.8c0,0.4,0.5,1.3,0.9,2c0.7,1.3,1.3,2.7,1.2,3.9c-0.1,1.4-1.2,3-2.2,4.4c-0.3,0.4-0.6,0.9-0.8,1.2
			c-0.3,0.6-0.8,1.3-1.3,2.2c-0.8,1.3-1.8,2.8-2.3,3.8c-2,4-5.3,12.6-6.7,17.1c-0.6,1.8-1.3,4.9-1.9,7.6c-0.4,1.6-0.7,3.2-1,4.3
			c-0.2,0.8-0.4,1.8-0.6,2.9c-0.7,3.2-1.4,6.9-2.7,8.9c-1.4,2.3-4.6,4.8-7.6,7.1c-2.3,1.8-4.7,3.6-5.9,5.1c-2,2.5-4.2,7.1-6.4,11.6
			c-1.9,3.9-3.7,7.6-5.4,9.9c-1.2,1.7-3.3,4-5.3,6.3c-1.6,1.8-3.2,3.5-4.1,4.7c-0.3,0.4-0.7,1-1.2,1.5c-2.4,3.2-6.1,7.9-7.1,10.8
			c-0.3,1-0.3,2.8-0.3,4.7c0,2.6,0,5-0.8,6.7c-0.9,1.8-3.2,3.4-5.4,5c-1.4,1-2.8,2-3.5,2.8c-4.7,5.7-5.4,8.1-5.4,8.9
			c0,0.3,0.5,1.1,0.8,1.7c0.7,1.2,1.4,2.4,1.2,3.6c-0.3,2-2.4,4-4.6,6c-0.2,0.2-0.4,0.3-0.5,0.5c-0.8,0.7-2,1.5-3.3,2.3
			c-1.4,0.9-3,1.9-3.7,2.7c-0.8,1-1.7,3.3-2.5,5.4c-0.5,1.4-1,2.7-1.5,3.6c-1.9,3.5-5.7,10-8,13.1c-1,1.3-2.6,2.8-4.3,4.4
			c-2.5,2.3-5.2,4.8-5.9,6.7c-0.7,2-0.3,6.9,0.5,8.9c0.2,0.6,1.3,1.5,2.1,2.3c1.3,1.2,2.5,2.3,2.9,3.6c0.9,2.6,0.8,7.9-0.2,10.4
			c-0.5,1.3-1.8,2.4-3.2,3.5c-1,0.8-2.3,1.8-2.5,2.5c-0.3,1,0.1,3.1,0.4,4.9c0.4,1.8,0.7,3.6,0.5,5c-0.2,1.7-1.4,5.3-2.7,6.9
			c-0.7,0.8-1.8,1.4-2.9,2c-0.7,0.4-1.7,0.9-2,1.2c-0.7,0.8-1.8,2.9-1.9,3.9c-0.2,1.2,0.3,3.5,0.7,5.4c0.3,1.4,0.6,2.7,0.7,3.7
			c0.1,1.9,0.4,7.6,0,10.6c-0.2,1.7-1.2,5.7-2.3,7.6c-1.2,2.1-4.1,4.7-6.5,7c-1.3,1.2-2.6,2.4-3.4,3.3c-2.2,2.4-6,6.9-7.7,9.3
			l-0.7,1c-2.2,3.1-6,8.2-6.9,11.1c-0.9,2.9-0.8,8.8-0.7,13.2c0,1.1,0,2.2,0,3c0,6.4,0.5,19.3,1.2,25.8c0.6,5,2.1,14.1,3.4,18.3
			c0.8,2.4,1.9,5.4,2.8,6.4c0.7,0.8,3,2.1,4.7,2.8c0.6,0.2,1.6,0.5,2.6,0.7c1,0.2,1.9,0.4,2.5,0.7c1.3,0.5,4.2,1.7,5.6,2.7
			c0.7,0.5,1.4,1.4,2.1,2.3c0.5,0.7,1.4,1.9,1.9,2.2c0.3-0.1,0.7-0.5,1-0.7c0.9-0.7,1.9-1.4,3.1-1.2c1.3,0.2,2.2,1.4,3.1,2.6
			c0.4,0.5,1,1.3,1.2,1.4c0.4,0.1,1.8,0.1,2.2-0.1c0.1-0.1,0.5-0.6,0.7-1c0.6-0.9,1.2-1.8,2.1-2.1c1.5-0.5,4.1,0.3,5.1,1.1
			c1,0.8,1.5,2.2,2,3.5c0.3,0.8,0.7,1.8,1,2.1c0.5,0.5,1.8,1.1,2.8,1.6c0.8,0.4,1.6,0.8,2.2,1.2c0.1,0.1,0.3,0.2,0.4,0.3
			c1.1,0.7,2,1.4,2.5,2.2c0.4,0.8,0.4,1.8,0.4,2.7c0,0.4,0,1.2,0.1,1.4c0.1,0.2,0.8,0.9,2.5,1.9c0.1,0.1,0.5,0.2,0.7,0.2
			c0.9,0.3,2,0.6,2.5,1.5c0.8,1.4-0.1,3.6-0.3,4.1c0,0-1.3,3.1-3.1,3.8c-1.4,0.5-3.8-0.2-4.7-0.9c-0.7-0.5-0.9-1.4-1.2-2.2
			c-0.1-0.2-0.2-0.6-0.3-0.8c-0.2-0.1-0.4-0.1-0.6-0.1c0,0,0,0,0,0c-0.3,0.2-1,0.9-1.1,1.3c0,0.3,0.4,1.2,0.7,1.7
			c0.5,1.1,1,2.2,0.9,3.2c-0.1,1.4-1.4,3.8-2.7,4.7c-1.1,0.7-3.3,1.1-4.6,0.7c-1.1-0.4-2.7-1.8-3.2-3c-0.5-1.2-0.2-2.9,0-4.6
			c0.1-0.8,0.3-1.7,0.2-2.2c0-0.1,0-0.3,0-0.5c0-0.3-0.1-1-0.2-1.4c-0.6,0-2,0.4-2.7,0.9c-0.5,0.3-1.6,1.7-1.8,2.3
			c-0.2,0.5-0.2,1.8-0.1,2.8c0,1.2,0.1,2.3-0.2,3.2c-0.2,0.9-0.8,1.8-1.4,2.7c-0.5,0.8-1.1,1.9-1.2,2.4c-0.2,1.8,0.9,6.1,2,7.7
			c0.2,0.3,1.1,0.9,1.8,1.3c1.2,0.7,2.4,1.5,3,2.6c0.6,1.2,0.4,2.8,0.2,4.5c-0.1,1-0.3,2.4,0,2.8c0.3,0.7,1.8,2,2.4,2.2
			c0.3,0.1,1.1,0,1.4-0.2c0.2-0.2,0.5-1,0.7-1.5c0.4-1.1,0.9-2.2,1.7-2.8c0.8-0.6,2.4-0.7,2.9-0.6c1.2,0.1,4.9,1.1,6.2,2.9
			c1,1.4,1.2,4.4,0.5,5.9c-0.7,1.3-2.8,2.1-3.5,2.2c-0.7,0.1-1.4-0.1-2.1-0.3c-0.2-0.1-0.6-0.2-0.8-0.2c-0.2,0.1-0.5,0.4-0.6,0.6
			c-0.3,0.9,0,3.7,0.6,5.1c0.3,0.8,1.7,2.6,2.6,3.6c1,1,3.1,2.6,4.1,3c1.6,0.7,5.5,1.1,7.3,1.1c0.7,0,1.9-0.3,3.1-0.7
			c2.3-0.7,4.6-1.3,6.3-0.6c1.7,0.7,3,3.4,3.4,4.3c0.8,1.8,1.7,5.6,1.5,7.6c-0.2,1.5-1.3,3.5-2.4,5.5l-0.2,0.4
			c-0.1,0.1-0.1,0.3-0.2,0.4c-0.5,1-1.1,2.2-2.2,2.5c-1.3,0.3-2.3-0.6-3.2-1.4c-0.2-0.2-0.5-0.4-0.8-0.6c-0.7,0.9-1.4,4.1-1.2,6.3
			c0.1,0.9,0.7,2.5,1.1,2.9c0.5,0,1.8-0.4,2.5-0.8c0.1-0.1,0.5-0.5,0.7-0.8c0.5-0.7,1-1.3,1.7-1.7c1-0.5,2.9-0.7,4-0.5
			c1.1,0.3,2.9,1.5,3.6,2.5c0.4,0.6,0.6,1.5,0.7,2.3c0,0.3,0.1,0.8,0.2,0.9c0.6,1.4,1.9,4.1,2.8,5c0.1,0.1,0.5,0.3,0.8,0.4
			c0.8,0.4,1.6,0.7,2,1.4c0.8,1.2,1.1,3.7,0.7,5.1c-0.4,1.3-2,3-3.2,3.5c-1.2,0.5-3.4,0.4-4.5-0.2c-0.8-0.4-1.3-1.3-1.9-2.2
			c-0.2-0.4-0.6-0.9-0.7-1.1c-0.6-0.4-2.3-0.9-2.9-0.8c-1.2,0.1-3.9,1.4-5.4,2.4c-1.1,0.8-2.9,2.6-3.4,3.5c-0.4,0.7-0.6,2.4-0.7,3.7
			c-0.2,1.3-0.3,2.6-0.6,3.5c-0.5,1.6-1.2,3.4-2.2,4.2c-0.9,0.8-2.4,1-3.9,1.3c-0.7,0.1-1.4,0.2-1.7,0.4c-1.6,0.6-4.7,2-5.9,3
			c-0.4,0.3-1,1-1.5,1.7c-0.8,1-1.5,1.9-2.2,2.4c-1.1,0.8-2.9,1.3-4.7,1.8c-1.6,0.4-3.4,0.9-4.1,1.5c-1.6,1.2-3.8,4.7-5.3,7
			c-0.4,0.7-0.8,1.3-1.2,1.8c-0.3,0.4-0.6,0.9-1,1.5c-1.4,2-3.5,5-4,6.8c-0.1,0.2,0,0.9,0.1,1.4c0.1,1,0.2,2-0.1,2.8
			c-0.3,0.8-1.1,1.5-1.9,2.1c-0.3,0.3-0.9,0.7-1,0.9c-0.4,0.7-0.5,2.3-0.7,3.7c-0.2,1.6-0.3,3.1-0.8,4.2c-0.4,0.9-1.2,2-2.1,3
			c-0.4,0.5-0.8,1-1,1.3c-0.2,0.3-0.5,0.7-0.8,1.2c-1,1.4-2.5,3.6-2.8,4.8c-0.3,1.1-0.1,3.2,0,5c0.2,2.1,0.3,4.1,0,5.6
			c-0.3,1.5-1.7,3.8-2.3,4.7c-0.4,0.6-1,1.1-1.7,1.7c-0.5,0.4-1.5,1.3-1.6,1.6c-0.5,1.6,0.4,5.9,1.2,8.1c0.1,0.2,0.5,0.7,0.8,1.1
			c0.5,0.6,0.9,1.1,1.1,1.7c0.3,0.8,0.5,2,0.6,3.1c0.1,0.9,0.2,2,0.4,2.5c0.3,0.6,1.2,1.6,2,2.5c1.1,1.2,2.1,2.3,2.5,3.3
			c0.9,2,1.3,6.1,1.5,8.5l0,0.5c0.1,0.9,0,2.1,0,3.4c-0.1,1.7-0.2,3.8,0.1,4.8c0.2,0.8,1.2,2.1,2.1,3.3c0.8,1.1,1.6,2.2,2,3.1
			c0.1,0.2,0.2,0.4,0.3,0.6c1.3,2.7,2.4,5.3,1.7,7.2c-0.9,2.2-4.9,3.3-5,3.3c-0.7,0.2-1.4,0.1-2.1-0.1c-0.3,0-0.8-0.1-1-0.1
			c-0.7,0.1-1.8,0.6-2,0.9c-0.3,0.3-0.7,1.4-0.9,2.1c-0.5,1.3-0.9,2.6-1.7,3.4C1391.6,1145.3,1388.2,1146.5,1386.2,1146.5z
			 M1364.5,1121.9c1.2,0,2.4,0.1,3.2,0.4c1.9,0.7,4.3,3.4,5.2,4.6c0.7,1,1.3,2.5,1.9,4c0.4,1,0.8,1.9,1.1,2.5
			c1.1,1.9,3.6,6.3,5.3,7.8c1.2,1,3.8,2.4,4.9,2.5c1.2,0.1,4.1-0.9,5.1-1.8c0.3-0.3,0.7-1.4,0.9-2.2c0.4-1.3,0.8-2.5,1.6-3.3
			c0.9-0.9,2.7-1.5,3.5-1.6c0.6-0.1,1.2,0,1.9,0.1c0.3,0,0.8,0.1,1,0.1c1.1-0.3,2.8-1.2,3-1.6c0.3-0.8-1.1-3.9-1.6-4.9
			c-0.1-0.2-0.2-0.5-0.3-0.7c-0.3-0.7-1-1.6-1.7-2.6c-1-1.4-2.1-2.9-2.5-4.1c-0.4-1.5-0.4-3.6-0.3-5.7c0.1-1.2,0.1-2.3,0-3l0-0.5
			c-0.2-2.1-0.5-6-1.2-7.6c-0.3-0.6-1.2-1.7-2-2.6c-1-1.1-2-2.2-2.5-3.3c-0.4-0.9-0.5-2.1-0.7-3.3c-0.1-0.9-0.2-1.9-0.4-2.4
			c-0.1-0.2-0.5-0.7-0.7-1c-0.5-0.6-1-1.2-1.2-1.8c-0.8-2-2.1-7.2-1.2-10c0.4-1.1,1.4-2,2.4-2.9c0.5-0.4,1-0.9,1.2-1.2
			c0.7-1,1.7-2.9,1.9-3.8c0.2-1,0.1-2.9-0.1-4.7c-0.2-2.3-0.4-4.4,0.1-6c0.5-1.7,2-3.9,3.2-5.6c0.3-0.4,0.6-0.8,0.8-1.1
			c0.3-0.4,0.7-1,1.2-1.5c0.6-0.8,1.4-1.8,1.7-2.3c0.3-0.7,0.5-2.1,0.6-3.3c0.2-1.8,0.4-3.5,1-4.7c0.4-0.7,1-1.2,1.7-1.8
			c0.3-0.3,0.9-0.8,1-1c0.1-0.2,0-1-0.1-1.5c-0.1-0.9-0.2-1.7,0-2.4c0.6-2.2,2.7-5.2,4.4-7.7c0.4-0.5,0.7-1,1-1.4
			c0.3-0.5,0.7-1.1,1.1-1.7c1.8-2.8,4-6.3,6-7.8c1.2-0.9,3.1-1.4,5.1-2c1.5-0.4,3.1-0.9,3.9-1.4c0.4-0.3,1.1-1.1,1.6-1.8
			c0.7-0.9,1.3-1.7,2-2.2c1.5-1.2,4.9-2.7,6.6-3.4c0.6-0.2,1.4-0.4,2.3-0.5c0.8-0.1,2.2-0.4,2.5-0.7c0.2-0.1,0.6-0.7,1.3-2.9
			c0.2-0.6,0.3-1.8,0.5-2.9c0.2-1.7,0.4-3.5,1-4.7c0.8-1.5,3-3.7,4.3-4.6c1.3-0.9,4.7-2.8,6.8-2.9c1.3-0.1,3.6,0.6,4.7,1.3
			c0.7,0.4,1.1,1.2,1.6,2c0.2,0.4,0.6,1,0.8,1.1c0.3,0.2,1.7,0.2,2.1,0.1c0.4-0.2,1.5-1.3,1.6-1.8c0.2-0.5-0.1-2.1-0.3-2.6
			c-0.2-0.1-0.6-0.3-0.9-0.4c-0.6-0.3-1.2-0.5-1.6-1c-1.4-1.4-2.9-4.7-3.4-6c-0.2-0.5-0.3-1-0.3-1.6c-0.1-0.4-0.1-1-0.2-1.2
			c-0.3-0.4-1.4-1.2-1.9-1.3c-0.4-0.1-1.6,0.1-2,0.2c-0.1,0.1-0.5,0.6-0.7,0.9c-0.4,0.6-0.9,1.2-1.5,1.6c0,0-3.3,1.9-5.2,0.9
			c-1.8-0.9-2.6-4.2-2.7-5.2c-0.1-1.3,0-8,3.1-9.4c1.3-0.6,2.6,0.4,3.5,1.3c0.2,0.2,0.4,0.4,0.7,0.6c0.1-0.3,0.3-0.6,0.4-0.8
			c0.1-0.2,0.2-0.4,0.3-0.6l0.2-0.4c0.6-1.1,1.9-3.3,2-4.4c0.2-1.3-0.6-4.6-1.3-6.2c-0.6-1.3-1.5-2.6-1.9-2.8
			c-0.8-0.3-2.9,0.3-4.4,0.7c-1.4,0.4-2.8,0.8-3.9,0.8c-2.1,0-6.3-0.5-8.4-1.4c-1.6-0.7-4.1-2.7-5-3.7c-0.8-0.8-2.7-3-3.3-4.6
			c-0.5-1.5-1.3-5.2-0.5-7.2c0.3-0.9,1.6-2,2.5-2.3c0.8-0.2,1.6,0,2.4,0.3c0.3,0.1,0.6,0.2,0.8,0.2c0.4-0.1,1.2-0.5,1.4-0.7
			c0.2-0.6,0.1-2.4-0.3-2.9c-0.4-0.6-2.8-1.5-4.2-1.7c-0.2,0-0.7,0-0.9,0.1c-0.2,0.2-0.5,1-0.7,1.5c-0.4,1.1-0.9,2.3-1.7,2.9
			c-1,0.7-2.9,0.8-3.9,0.5c-1.4-0.5-3.5-2.4-4.2-3.8c-0.5-1.2-0.4-2.7-0.2-4.3c0.1-1,0.3-2.4,0-2.9c-0.2-0.3-1.3-1-1.9-1.4
			c-1.1-0.7-2.1-1.3-2.7-2.2c-1.3-2-2.8-6.9-2.5-9.6c0.1-1.1,0.9-2.4,1.6-3.6c0.4-0.7,0.9-1.5,1-2c0.1-0.5,0.1-1.5,0.1-2.4
			c0-1.5-0.1-2.9,0.3-3.9c0.4-1.1,1.9-3,3-3.7c0.8-0.5,4.1-2,5.9-0.9c1.1,0.7,1.2,2.3,1.3,3.6c0,0.2,0,0.3,0,0.4
			c0.1,0.8-0.1,1.8-0.3,2.9c-0.2,1-0.4,2.6-0.2,3.1c0.2,0.4,1,1.2,1.4,1.3c0.4,0.1,1.7-0.1,2.1-0.3c0.5-0.3,1.4-2,1.5-2.7
			c0-0.3-0.4-1.2-0.7-1.7c-0.6-1.2-1.1-2.4-0.9-3.6c0.3-1.2,1.8-2.9,3-3.3c0.9-0.3,2.5,0,3.3,0.6c0.7,0.5,0.9,1.4,1.2,2.2
			c0.1,0.3,0.2,0.7,0.3,0.8c0.4,0.2,1.4,0.5,1.8,0.4c0.3-0.2,1.1-1.3,1.4-2.2c0.2-0.5,0.3-1.1,0.4-1.5c-0.2-0.1-0.6-0.2-0.8-0.3
			c-0.5-0.2-1-0.3-1.4-0.6c-1.8-1.1-3-2.2-3.5-3c-0.4-0.8-0.4-1.8-0.4-2.7c0-0.4,0-1.2-0.1-1.4c-0.2-0.3-1.1-0.9-1.5-1.1
			c-0.2-0.1-0.3-0.2-0.5-0.3c-0.4-0.3-1.1-0.6-1.8-1c-1.4-0.7-2.8-1.4-3.6-2.2c-0.7-0.7-1.1-1.9-1.6-3c-0.3-0.8-0.8-2-1.1-2.3
			c-0.4-0.3-1.9-0.7-2.4-0.7c-0.2,0.2-0.5,0.7-0.7,1c-0.5,0.8-1,1.6-1.8,2c-1.1,0.5-3.3,0.7-4.4,0.2c-1-0.4-1.7-1.3-2.5-2.4
			c-0.3-0.4-0.9-1.1-1.2-1.4c-0.3,0.1-0.7,0.5-1,0.7c-1,0.7-2,1.4-3.1,1.2c-1.5-0.3-2.7-1.8-3.8-3.3c-0.5-0.7-1.1-1.5-1.5-1.7
			c-1-0.7-3.4-1.8-4.9-2.3c-0.5-0.2-1.4-0.4-2.2-0.6c-1.1-0.3-2.3-0.5-3.1-0.9c-0.2-0.1-4.2-1.8-5.7-3.5c-1.6-1.8-3-6.1-3.4-7.4
			c-1.4-4.6-3-13.9-3.5-18.8c-0.8-6.6-1.2-19.6-1.2-26.1c0-0.8,0-1.9,0-3c-0.1-4.5-0.2-10.7,0.8-14.1c1.1-3.4,4.8-8.5,7.3-11.9
			l0.7-1c1.8-2.4,5.7-7,7.9-9.5c0.9-1,2.2-2.2,3.6-3.5c2.3-2.2,5-4.6,6-6.4c0.8-1.3,1.7-4.8,1.9-6.6c0.3-2.3,0.2-7.2,0-9.9
			c-0.1-0.8-0.3-2-0.6-3.3c-0.5-2.3-1-4.7-0.8-6.4c0.2-1.6,1.6-4.2,2.6-5.3c0.6-0.7,1.7-1.3,2.8-1.9c0.7-0.4,1.8-0.9,2-1.3
			c0.8-1,1.9-4,2.1-5.5c0.1-0.9-0.2-2.5-0.5-4c-0.4-2.3-0.9-4.7-0.3-6.3c0.5-1.4,1.9-2.5,3.4-3.7c1-0.8,2.2-1.7,2.4-2.4
			c0.8-1.8,0.8-6.4,0.2-8.3c-0.2-0.6-1.3-1.6-2.2-2.4c-1.2-1.1-2.4-2.2-2.8-3.4c-1-2.6-1.5-8.2-0.5-10.9c0.9-2.6,3.8-5.3,6.7-7.9
			c1.6-1.5,3.1-2.9,3.9-4c2.2-2.9,5.9-9.4,7.7-12.7c0.4-0.8,0.9-2,1.4-3.3c0.9-2.3,1.8-4.8,3-6.2c0.9-1.1,2.7-2.2,4.4-3.3
			c1.1-0.7,2.3-1.4,2.9-2c0.2-0.2,0.4-0.3,0.6-0.5c1.1-1,3.5-3.2,3.7-4.3c0-0.3-0.5-1.2-0.9-1.7c-0.7-1.1-1.3-2.2-1.2-3.3
			c0.2-2.3,2.2-5.9,6.1-10.5c0.9-1.1,2.4-2.2,4-3.3c1.8-1.3,3.9-2.8,4.5-4c0.5-1,0.5-3.3,0.5-5.3c0-2.1,0-4.2,0.5-5.6
			c1.2-3.3,4.9-8.1,7.6-11.6c0.4-0.6,0.8-1.1,1.2-1.5c1-1.3,2.6-3.1,4.3-4.9c2-2.2,4-4.4,5.1-6c1.5-2.2,3.3-5.8,5.1-9.6
			c2.3-4.6,4.6-9.3,6.8-12.1c1.4-1.7,3.8-3.6,6.3-5.6c2.8-2.2,5.8-4.4,7-6.3c1-1.6,1.7-5.3,2.3-8c0.2-1.2,0.5-2.2,0.7-3.1
			c0.3-1.1,0.6-2.6,1-4.3c0.6-2.8,1.4-5.9,2-7.8c1.5-4.7,4.8-13.4,6.9-17.5c0.5-1.1,1.5-2.6,2.4-4c0.5-0.8,1-1.5,1.3-2.1
			c0.2-0.4,0.6-0.9,0.9-1.4c0.6-0.8,1.6-2.4,1.7-3c0-0.4-0.6-1.6-0.9-2.4c-0.5-1.1-1-2.1-1.1-3c-0.3-2.7,0.7-7.7,1.5-10
			c0.5-1.4,2.4-5.9,4.5-7.5c1.7-1.4,5-2,7.8-2.7c1-0.2,1.9-0.4,2.6-0.6c0.6-0.2,1.4-0.4,2.3-0.6c1.5-0.4,3.1-0.8,4.1-1.1
			c0.2-0.1,0.4-0.1,0.6-0.2c0.6-0.2,2.3-0.8,2.6-1.2c0.6-0.7,1.4-2.4,1.4-3.1c-0.5-0.2-1.8-0.4-2.3-0.5c-0.2,0-0.5-0.1-0.6-0.1
			c-1.1-0.2-3.1-0.1-4.8,0c-1.4,0-2.6,0.1-3.6,0c-0.3,0-0.6,0-1,0c-2.3-0.1-5.3-0.2-7.1-0.9c-1.5-0.6-3-2-4.6-3.5
			c-1.3-1.2-2.8-2.5-3.8-2.9c-1.5-0.6-5.1-0.8-7.2-0.9c-0.5,0-0.9,0-1.2-0.1c-0.5,0-1-0.1-1.7-0.1c-1.8-0.2-4.7-0.5-5.8,0
			c-1,0.5-2.5,2.4-3.7,3.9c-0.9,1.2-1.7,2.3-2.5,3c-4,3.6-12.9,9.9-17,12.8c-2.3,1.6-6.3,4-9.5,6c-1.4,0.8-2.6,1.6-3.6,2.2
			c-0.9,0.5-2,1.3-3.2,2.1c-3,2-6.3,4.3-8.7,5.2c-2,0.7-4.8,1.1-7.9,1.4c-2.7,0.3-5.5,0.6-7.1,1.2c-0.7,0.3-1.7,1-2.7,1.7
			c-1.4,1-2.8,2-4,2.4c-2.4,0.7-7,0.2-8.4,0c-0.4-0.1-4.3-0.6-6-1.8c-1.2-0.8-3.6-3.3-3.9-5.2c-0.3-1.6,0.6-3.5,1.4-5.4
			c0.4-0.9,0.8-1.8,0.9-2.4c0.4-1.7,0.8-4.9,0.7-6.3c-0.1-1.2-0.7-3.4-1.1-4.1c-0.4-0.6-1.8-1.6-2.3-1.7c-0.6-0.2-1.8-0.1-2.3,0.1
			c0,0.4,0,1.3,0.2,1.8c0.1,0.2,0.5,0.7,0.8,1c0.5,0.6,1.1,1.2,1.3,1.9c0.8,2.3,0.7,6.9,0.6,9.4c-0.1,2.9-0.8,8.8-1.8,11.7
			c-1,3.1-4.1,8.6-5.9,11.3c-1.8,2.6-5.8,7.4-8.1,9.5c-2.1,1.8-6.5,4.6-8.6,5.7c-1.1,0.6-2.7,1.1-4.4,1.7c-1.8,0.6-3.7,1.2-4.7,1.8
			c-0.7,0.4-1.7,1.3-2.6,2.2c-0.9,0.9-1.8,1.7-2.6,2.2c-1.1,0.7-3.5,2.1-5,2.5c-1,0.2-2.6,0.2-3.9,0.1c-0.5,0-1-0.1-1.3-0.1
			c-0.3,0-0.7,0.1-1.1,0.1c-1.4,0.2-3,0.4-4.2-0.3c-1.4-0.9-2.1-2.9-2.8-4.9c-0.3-1-0.7-2-1-2.4c-0.7-1.1-2.2-3-3.1-3.5
			c-1.2-0.7-4.3-1.5-6-1.7c-1.1-0.1-3.2,0-4.9,0.1c-0.9,0.1-1.6,0.1-2.2,0.1c-0.7,0-1.7,0.1-2.7,0.1c-2.6,0.2-5.6,0.4-7.5,0
			c-1.5-0.3-5-1.5-6.5-2.8c-0.8-0.8-1.3-2-1.7-3.4c-0.3-0.8-0.7-1.8-1-2.2c-1-1.2-4.1-2.9-5.7-3.5c-1.3-0.5-3.6-1.1-4.5-1
			c-0.9,0.1-3,1.2-4.2,2.1c-0.5,0.3-1.2,1.1-1.9,1.9c-1.1,1.2-2.2,2.4-3.3,3c-1.5,0.7-3.8,1-6,1.2c-1.2,0.1-2.3,0.2-3,0.4
			c-2.9,0.6-8.7,2.3-11.7,3.3c-0.8,0.3-2,0.8-3.2,1.3c-2.4,1-5,2.1-6.8,2.3c-2.1,0.3-6.6,0-8.8-1c-0.9-0.4-1.7-1.3-2.5-2.3
			c-0.5-0.6-1.3-1.6-1.6-1.7c-0.7-0.2-2.7,0.3-3.2,0.8c-0.4,0.3-0.8,1.7-1.1,2.6c-0.3,1.1-0.6,2-1.1,2.8c-1.2,1.8-3.5,4-5.7,6.2
			c-1.3,1.3-2.5,2.4-3.3,3.3c-1.9,2.1-5.6,6.8-7.4,9.3c-0.5,0.7-1.3,1.9-2,3.1c-0.8,1.4-1.7,2.8-2.4,3.7l-0.4,0.6
			c-2.3,3.1-4.7,6.2-6.7,7.5c-1.1,0.8-3.3,1.4-5.5,2c-1,0.3-2.4,0.5-3.9,0.7c-1.3,0.2-2.7,0.4-3.6,0.6c-2.8,0.7-8.3,2.6-10.9,3.8
			c-1.1,0.5-2.8,1.5-4.4,2.5c-1.7,1-3.4,2-4.6,2.6c-2,0.9-6.1,2.4-8.4,3.1c-2.5,0.7-7,2.1-9.6,2.2c-1.9,0.1-4.4-0.5-7.1-1.1
			c-2.4-0.5-4.8-1.1-6.3-1c-2.4,0.1-7,1.1-9,2c-1.2,0.5-2.9,1.9-4.5,3.2c-1.6,1.3-3.2,2.5-4.5,3.2c-1.5,0.8-4.3,1.6-6.8,2.3
			l-0.2,0.1c-2.5,0.7-7.4,1.9-11.1,2.7c-0.5,0.1-1.1,0.3-1.8,0.4c-2.8,0.6-6.6,1.5-8.8,1.7c-4.2,0.4-12.6,0.4-17.2,0
			c-3.8-0.4-11.5-1.6-15.3-2.9c-1.2-0.4-2.6-1.3-4.1-2.1c-1.6-0.9-3.3-2-4.4-2.2c-1.8-0.4-5.8-0.5-7.4,0c-0.7,0.2-2,1.2-3,2
			c-1.1,0.9-2.1,1.7-3.1,2.1c-6.2,2.7-8.1,2.2-8.8,2c-1.3-0.3-2.2-1.6-3.1-2.8c-0.5-0.6-1.2-1.6-1.5-1.7c-0.7-0.3-2.3,0-3.7,0.1
			c-1.7,0.2-3.3,0.4-4.5,0.1c-1.3-0.4-2.9-1.5-4.4-2.7c-0.6-0.5-1.3-0.9-1.7-1.2c-0.5-0.3-1.1-0.8-1.8-1.2c-1.3-0.9-3.4-2.4-4.3-2.5
			c0,0,0,0,0,0c-1,0-2.8,1.3-4.2,2.3c-1.5,1.1-2.9,2.1-4.3,2.4c-1.6,0.4-3.8,0.3-6,0.2c-1.6-0.1-3.2-0.1-4.2,0
			c-2.3,0.4-6.6,1.4-8.4,2.5c-0.7,0.4-1.9,1.7-2.8,2.8c-0.9,1-1.7,1.9-2.4,2.5c-2.4,2-8,5.2-9.1,5.9c-1.2,0.7-11.4,6.7-16.7,8.8
			c-2.2,0.9-6,1.8-9.1,2.6c-1.3,0.3-2.4,0.6-3.3,0.8c-0.8,0.2-1.9,0.6-3.1,0.9c-3.1,1-6.6,2.1-8.9,2.2c-3.6,0.3-10.6-0.7-14-1.6
			l-0.4-0.1c-2.1-0.5-4.1-1-5.2-2.1c-0.7-0.8-0.9-2-1.1-3.2c-0.1-0.5-0.2-1.4-0.4-1.7c-0.6-0.4-2.7-0.2-4-0.1
			c-1.2,0.1-2.3,0.2-3.1,0.1c-2.3-0.3-9.1-1.5-12.4-2.9c-2.9-1.3-7.9-5.1-10.1-6.9c-0.9-0.7-1.9-1.9-3-3.1c-1.4-1.5-2.9-3.2-4-3.9
			c-0.7-0.4-2.1-0.8-3.4-1.1c-1-0.3-2-0.6-2.7-0.9c-0.3-0.1-0.6-0.2-0.9-0.4c-3.2-1.3-6.1-2.7-7.6-4.2c-1.3-1.4-2.4-4.6-2.8-5.9
			c-0.4-1.5-0.4-3.6-0.4-5.8c0-2.1-0.1-4.3-0.4-5.5c-0.1-0.3-0.5-0.9-0.8-1.4c-0.4-0.6-0.8-1.2-1-1.7c-0.3-0.8-0.4-1.8-0.5-2.9
			c-0.1-1-0.3-2.4-0.6-2.9c-0.3-0.6-1.7-1.8-2.4-2.1c-1.7-0.7-4.6-1-5.4-0.6c-0.2,0.2-0.5,1.2-0.7,1.9c-0.4,1.1-0.7,2.2-1.4,2.9
			c-1.6,1.5-5,2.8-8.2,3.9c-2.6,0.9-7.7,2.2-10.5,2.2c-2,0-5.3-0.7-7.7-1.3c-0.6-0.1-1.1-0.2-1.5-0.3c-0.6-0.1-1.3-0.3-2.1-0.4
			c-3.2-0.6-7.2-1.4-9.3-2.5c-1.7-0.9-5.5-3.4-6.6-5.6c-0.7-1.5-0.6-4.5,0-5.9c0.3-0.7,0.9-1.2,1.6-1.7c0.2-0.2,0.6-0.5,0.7-0.6
			c0.4-0.9,0.1-3.9,0.1-5l0-0.2c-0.2-2-0.9-6.1-1.5-8c-0.6-1.7-1.8-4.6-2.7-5.7c-0.6-0.7-2.3-1.8-3.5-2.6c-0.6-0.4-1.2-0.8-1.6-1.1
			c-0.3-0.2-0.8-0.5-1.4-0.9c-1.6-0.9-3.4-2-4.1-3.4c-0.5-1-0.3-2.2-0.1-3.3c0.1-0.5,0.2-1.4,0.2-1.7c-0.5-0.6-2.8-1.3-4.5-1.5
			c-1.6-0.1-4.9,0.6-6.1,1.4c-0.3,0.2-0.9,1.1-1.3,1.7c-0.5,0.7-0.9,1.4-1.5,1.9c0,0-2.1,1.9-3.5,2.3c-1,0.3-2.4,0.1-3.7-0.1
			c-0.8-0.1-1.7-0.3-2.1-0.2c-1.1,0.1-2.9,0.7-3.5,1.1c-0.4,0.3-1,1.5-1.4,2.3c-0.4,0.8-0.8,1.5-1.1,2c-1.3,1.7-4,4.9-5.6,6.3
			c-1.3,1.1-4.7,3.3-6.8,3.8c-1.9,0.5-6.7,1-8.9-0.3c-1.3-0.8-1.9-2.4-2.5-4.2c-0.3-0.9-0.9-2.3-1.3-2.6c-0.8-0.6-3.2-1.1-6.2-1.3
			c-2.1-0.1-6.7,0.3-9,0.8c-4.2,1-6.8,2-7.6,2.9c-0.5,0.5-1.1,2.6-1,3.6c0,0.2,0.4,0.9,0.7,1.4c0.6,1.1,1.3,2.2,1,3.4
			c-0.3,1.5-1.9,2.8-3.3,3.9c-0.5,0.4-1,0.8-1.2,1c-0.4,0.4-0.9,0.9-1.5,1.4c-1.1,1-2.7,2.4-3.1,3.2c-0.6,1.5-0.6,4.7-0.1,5.6
			c0.2,0.2,1,0.5,1.5,0.6c1.1,0.4,2.2,0.8,2.8,1.6c0.9,1.3,1.1,3.4,1.2,5.9c0,0.4,0,0.7,0.1,1l0,0.4c0.2,1.9,0.3,3.6-0.1,4.8
			c-0.9,2.5-4.3,5.9-5.8,7.2c-2.3,1.8-6.3,3.6-10.2,5.3c-2.2,1-4.3,1.9-5.6,2.6c-1.4,0.8-3.3,2-5.3,3.4c-3.1,2-6.3,4.1-8.5,5.2
			c-3,1.4-9.2,3-12.3,3.6c-1.7,0.3-5.8,1-7.9,0.7c-1.5-0.2-5.2-1.2-6.8-2.6c-1.2-1-2-2.9-2.9-4.7c-0.6-1.2-1.1-2.5-1.6-3.1
			c-1.2-1.5-4.4-4.2-6.3-5.3c-0.7-0.4-2.1-0.9-3.4-1.3c-1.7-0.5-3.5-1.1-4.6-1.9c-1.9-1.3-5-4.8-6.3-6.7c-1.4-2-3.6-6.4-4.4-8.9
			c-0.5-1.7-0.7-4.2-1-6.7c-0.2-1.9-0.3-3.9-0.6-5.1l-0.1-0.4c-0.3-1.1-0.9-3.7-1.5-4.5c-0.3-0.3-1.5-0.8-2.2-1
			c-1.4-0.5-2.8-1-3.6-2c-0.7-0.9-1.7-3.5-1.1-5.1c0.4-1,1.4-1.4,2.2-1.8c0.3-0.1,0.6-0.3,0.8-0.4c0.3-0.5,0.6-2,0.6-2.7
			c0-0.6-0.4-1.7-0.7-1.9c-0.7-0.7-2.7-1.4-3.3-1.3c-0.2,0.1-0.8,0.8-1.1,1.2c-0.6,0.7-1.3,1.4-2,1.7c-0.6,0.3-3.4,1.2-5,0.5
			c-0.8-0.3-1.1-1.1-1.5-1.7c0-0.1-0.1-0.2-0.1-0.3c-0.5,0.2-1.4,0.6-1.7,1c-0.5,0.5-1.3,2.5-1.3,3.3c0,0.5,0.4,1.9,0.9,2.6
			c0.2,0.3,0.8,0.9,1.3,1.4c0.8,0.8,1.6,1.6,2,2.4c0.8,1.7,1.4,5.2,1.2,7.1c-0.3,2.4-2,6.7-3.4,8.5c-1,1.2-3.8,3.6-5.8,3.9
			c-1.4,0.2-3.1-0.6-4.7-1.3c-0.9-0.4-1.9-0.9-2.5-1c-1.1-0.1-3.6,0.2-4.8,0.6c-1.1,0.4-2.9,1.4-3.3,2c-0.4,0.5-0.6,2.1-0.8,3.4
			c-0.2,1.6-0.4,3-1,4c-1.4,2.5-5.5,6-7,7.1c-1,0.7-3.9,2.8-5.7,3.3c-1.3,0.4-3.2,0.2-5,0.1c-1.1-0.1-2.2-0.1-2.9-0.1
			c-1.5,0.1-4.7,0.6-6.1,1.1c-1.5,0.5-4.3,1.7-5.3,2.5c-1,0.9-2.4,3.2-3.4,4.9c-0.4,0.6-0.7,1.2-1,1.6c-0.3,0.5-0.7,1.3-1.2,2.1
			c-1,2-2.1,4-3.3,5.1c-1,0.8-2.8,1.3-4.4,1.7c-0.5,0.1-1.2,0.1-1.8,0.2c-0.5,0-1.5,0-1.7,0.2c-0.1,0.1-0.4,0.6-0.5,0.9
			c0.2,0.1,0.5,0.3,0.8,0.4c0.9,0.5,2,1,2.3,2.1c0.4,1.5-0.4,3.2-1.4,5.2c-0.2,0.3-0.3,0.6-0.4,0.8c-0.3,0.6-0.8,1.4-1.3,2.2
			c-0.6,0.8-1.2,1.8-1.4,2.3c-0.6,1.7-0.8,5.6-1,7.5l0,0.3c0,0.7,0,1.8,0,2.9c0.1,1.8,0.1,3.6-0.1,4.8c-0.3,1.9-1.7,5.5-2.5,7.2
			c-0.4,1-1.3,2.3-2,3.6c-0.4,0.7-0.9,1.4-1.1,1.9c-0.2,0.4-0.5,0.8-0.8,1.3c-0.5,0.8-1.4,2.2-1.5,2.8c-0.1,1.2,1.2,3.9,1.9,5.4
			c0.2,0.4,0.3,0.7,0.4,1c0.2,0.5,0.7,1.2,1.1,1.9c0.9,1.4,1.9,2.9,2.1,4.2c0.2,1.6-0.5,3.9-1.3,6c-0.3,0.9-0.9,2.1-1.6,3.2
			c-0.5,0.9-1,1.9-1.2,2.5c-0.5,1.3-1.3,3.8-1.5,5c-0.1,0.6,0,1.5,0.1,2.5c0.1,1.6,0.3,3.3-0.1,4.5c-0.4,1.3-2,3.4-3.2,4.1
			c-0.9,0.6-2.2,0.8-3.5,1c-0.8,0.1-1.6,0.2-2,0.4c-2.4,1.1-4,2.2-4.2,2.7c-0.3,0.6-0.3,2.7,0,3.3c0.3,0.6,1.9,1.4,2.9,1.9
			c1.3,0.6,2.4,1.3,3.2,2c2.2,2.4,5.4,7.8,6.2,10.8c0.5,1.8,0.5,4.4,0.5,7c0,1.4,0,2.6,0.1,3.5c0,0.4,0.1,0.9,0.1,1.4
			c0.2,2.5,0.6,6.4,1.2,8.2c0.4,1.2,1.8,3.6,2.6,4.4c0.5,0.5,1.8,1.2,3,1.8c1.7,0.8,3.3,1.6,4.2,2.7c1,1.3,1.7,3.4,2.3,5.5
			c0.4,1.3,0.8,2.6,1.2,3.4l0.2,0.3c0.2,0.4,0.9,1.6,1.2,1.9c0.7,0.2,2.7-0.4,3.9-0.8c1-0.3,2-0.6,2.8-0.7c0.3,0,0.6-0.1,1-0.1
			c2.9-0.4,5.7-0.6,7.4-0.2c1.5,0.4,3.9,1.8,6.9,4.1c2.3,1.7,7.3,6.1,9.3,9c1.4,1.9,2.9,5.5,4.1,8.4c0.4,1,0.8,1.9,1.1,2.6
			c0.5,1,1,2.5,1.6,4c1.1,2.9,2.4,6.2,3.5,7.9c1.5,2.3,4.4,6.1,6.2,7.1c0.8,0.5,3.2,1.1,4.2,1c2.5-0.1,7.3-2,10.4-3.2
			c0.9-0.4,1.7-0.7,2.4-0.9c1.4-0.5,3.4-1.5,5.5-2.5c3.5-1.6,7-3.3,9.6-3.9c3.5-0.8,10.6-1,14.3-0.9c2,0,4.9,0.5,7.8,0.9
			c2.4,0.3,4.6,0.6,6.2,0.7c1.5,0.1,3.6,0,5.9,0c2.8-0.1,5.8-0.2,7.7,0c3,0.3,9,1.4,12.1,2.3c2.4,0.8,7.3,2.8,9.7,4.2
			c1.8,1.1,5,3.7,6.3,4.7c0.4,0.4,0.9,0.8,1.4,1.2c2.8,2.3,6.6,5.5,7.9,8c0.8,1.5,1,3.8,1.2,6.2c0.2,1.9,0.3,3.9,0.8,4.8
			c0.5,1.1,2,3,2.8,3.4c0.4,0.2,1.5,0.3,4.6-0.1c0.9-0.1,2.3-0.6,3.7-1c1.5-0.5,2.9-0.9,4-1.1c2.2-0.3,6.5-0.4,8.7-0.2
			c1.3,0.1,3,0.6,4.7,1.1c1.9,0.5,3.8,1.1,4.9,1.2c0.9,0,2.5-0.3,4-0.6c1.6-0.3,3.1-0.6,4.3-0.6c1.5,0,5.9,0.3,8,1.4
			c1.4,0.8,2.9,2.6,4.4,4.3c0.7,0.9,1.4,1.7,1.9,2.1c2.3,2.1,4,3.6,5,4.2c0.7,0.4,1.9,0.9,3.2,1.3c1.9,0.7,3.9,1.4,5,2.4
			c0.8,0.7,1.5,2,2.1,3.2c0.4,0.7,0.8,1.5,1.1,1.9c0.8,1,2.5,2.5,4.1,3.9c1.2,1.1,2.4,2.1,3.2,2.9c1.9,2,5.3,6,6.8,8.1
			c0.4,0.6,0.8,1.6,1.2,2.5c0.5,1.1,1.1,2.6,1.6,3c0.6,0.5,2.4,0.9,3.8,1.2c1.7,0.3,3.3,0.7,4.4,1.4c1.2,0.8,2.5,2.5,4,4.4
			c0.3,0.3,0.5,0.6,0.7,0.9c0.6,0.7,1.2,1.7,1.9,2.8c1,1.6,2.3,3.7,3.3,4.4c1,0.7,3.7,1.5,5.2,1.9l0.8,0.2c0.6,0.2,1.5,0.3,2.5,0.4
			c1.5,0.2,3.1,0.4,4.1,0.9c2.9,1.2,8,4.8,9.9,6.4c3,2.4,8.3,7.7,10.6,10.4c0.7,0.8,1.4,2,2.2,3.3c1,1.7,2.2,3.6,3.1,4.3
			c1.2,1,4.4,2.4,5.8,2.5c1.2,0.1,3.3-0.8,5.2-1.5c1.7-0.7,3.3-1.3,4.6-1.5c3.1-0.4,9.2-0.3,12.4,0.2c2.5,0.4,7.3,1.7,9.5,3
			c2.3,1.3,5.2,4.5,7.6,7c0.8,0.8,1.5,1.6,2.1,2.2c0.9,0.9,2,2.1,3.2,3.4c1.9,2.1,4.2,4.5,5.6,5.7c0.7,0.6,1.8,1.3,3,2
			c1.8,1.1,3.6,2.2,4.6,3.3c0.9,1,1.8,2.8,2.6,4.5c0.5,1.1,1.1,2.3,1.5,2.9c1.1,1.6,3.9,4.6,5.4,6c2.7,2.6,8.1,7.4,10.9,9.2
			c2.8,1.8,8.8,4.5,11.7,5.5c2.2,0.7,6.8,1.6,8.9,1.9c1.3,0.1,3.3,0,5.3,0c2.4-0.1,4.8-0.2,6.4,0c2.5,0.3,8.6,1.4,11.2,3.3
			c1.2,0.9,2.3,2.7,3.4,4.5c0.5,0.8,0.9,1.5,1.3,2c0.3,0.4,0.7,1,1.2,1.6c1.5,2,3.5,4.7,4.8,5.7c1.6,1.2,5.7,2.9,7.8,3.3
			c3.2,0.7,10.2,0.5,13.6,0c1.6-0.2,4.1-1.2,6.4-2c1.8-0.7,3.5-1.3,4.8-1.6c3.7-0.9,10.8-2.3,14.3-2.7c6.3-0.6,18.9-0.7,25.1-0.4
			c3.2,0.2,10.1,1,13.6,1.8c2.6,0.6,7.1,2.3,10.4,3.5c0.6,0.2,1.2,0.5,1.7,0.6c1,0.4,2.3,0.8,3.6,1.3c5,1.7,11.2,3.9,14.7,5.7
			c5.1,2.7,13.5,9.3,19.1,13.7c0.9,0.7,1.7,1.3,2.4,1.8l1.1,0.9c6.5,5,17.4,13.5,22.5,18.7c5.3,5.4,14.2,16.9,18.1,22.8
			c3.4,5.1,8.3,15,12,22.1c1,2,2,3.9,2.7,5.4c0.4,0.7,0.9,1.7,1.5,2.8c1.7,2.9,3.7,6.6,4.3,9c0.3,1.2,0.1,2.8-0.1,4.5
			c-0.2,1.6-0.4,3.6,0,4.3c0.2,0.3,1.3,1,1.9,1.3c0.9,0.5,1.7,1,2.2,1.6c0.8,0.9,1.5,2.3,2.3,3.8c0.6,1.2,1.2,2.4,1.7,3
			c1.4,1.6,4.1,4.2,5.5,4.7c1,0.4,3.2,0.2,4.9,0c0.9-0.1,1.7-0.1,2.3-0.1c0.8,0,1.9,0,3-0.1c2.8-0.1,6-0.2,8,0.1
			c2.4,0.3,7,1.4,9.2,2.4c0.8,0.4,1.7,1.2,2.5,2c0.7,0.7,1.7,1.6,2.2,1.8c0.8,0.3,2.5,0.1,4.1-0.1c2.1-0.2,4.1-0.5,5.6,0.1
			c2,0.8,4.5,3.4,6.2,5.4c0.3,0.4,0.6,0.7,0.9,1c0.7,0.7,1.4,1.7,2.3,2.8c1,1.4,2.2,2.9,3,3.6c2.4,2,7.3,5.2,9.8,5.7
			c1.2,0.2,3.5-0.2,5.6-0.6c1.8-0.4,3.5-0.7,4.8-0.7c1.8,0,6.2,0.5,8.4,1.5c0.9,0.4,2,1.4,3,2.3c0.5,0.5,1.1,1,1.4,1.2
			c0.1,0.1,0.3,0.2,0.5,0.4c0.7,0.5,2.2,1.6,2.8,1.7c1.5,0.3,5.3-0.2,7-1c0.6-0.3,1.6-1.3,2.3-2.1c1-1.1,2-2.1,3-2.6
			c1.6-0.9,4.3-1.3,6.8-1.7c1.6-0.3,3.2-0.5,4.2-0.8c0.7-0.2,1.8-0.8,2.9-1.3c1.7-0.8,3.4-1.7,4.7-1.9c2.3-0.5,6.8-0.5,9.3,0
			c2.2,0.4,6.3,1.9,8.1,3.3c1.3,1,2.4,2.9,3.6,4.9c0.9,1.5,1.8,3,2.6,3.7c2,1.8,6.2,4.7,8.3,4.9c1.7,0.2,5.7-1.1,7.7-2.2
			c0.6-0.3,1.5-1.2,2.3-2c1.3-1.2,2.5-2.4,3.7-2.9C1361.3,1122.1,1362.9,1121.9,1364.5,1121.9z"/>
	</g>
	<g>
		<path fill="none" stroke="#201600" stroke-miterlimit="10" d="M661.1,1489.8c0.1,1,0.9,3,0.6,3.9c-0.3,1-2,2.5-3,2.7
			c-1.8,0.5-6-0.4-7.2-1.8c-0.8-0.9,0.2-3.7-0.4-4.8c-0.5-0.9-3.1-1.5-3.4-2.5c-0.3-1,0.6-3.3,1.5-3.9c1.5-1,5.3-0.3,7,0
			c1.1,0.2,3.6,0.5,4.3,1.4C661.3,1485.8,660.9,1488.6,661.1,1489.8z"/>
		<path fill="none" stroke="#201600" stroke-miterlimit="10" d="M657.5,1498c-2.4,0-5.8-0.9-7.1-2.5c-0.8-0.9-0.7-2.2-0.6-3.5
			c0-0.4,0.1-1.2,0-1.5c-0.2-0.2-0.7-0.4-1-0.6c-1-0.5-2.2-1.1-2.5-2.2c-0.5-1.7,0.8-4.6,2-5.5c1.7-1.2,4.7-0.8,7.6-0.3l0.8,0.1
			c2.1,0.3,4,0.7,4.9,1.9c0.8,1.1,0.8,2.8,0.8,4.3c0,0.5,0,1.1,0,1.4c0,0,0,0,0,0c0,0.2,0.1,0.6,0.2,1c0.3,1.2,0.7,2.5,0.3,3.5
			c-0.5,1.4-2.5,3.3-4,3.7C658.6,1497.9,658.1,1498,657.5,1498z M652.6,1493.7c0.8,0.9,4.3,1.7,5.7,1.3c0.5-0.1,1.8-1.3,2-1.8
			c0.1-0.3-0.2-1.3-0.4-1.8c-0.1-0.5-0.3-1-0.3-1.4c-0.1-0.5-0.1-1.1-0.1-1.8c0-0.7,0-2.1-0.2-2.5c-0.3-0.3-1.3-0.5-3.1-0.8
			l-0.8-0.1c-1.2-0.2-4.7-0.8-5.5-0.2c-0.4,0.3-0.9,1.6-0.9,2.2c0.2,0.2,0.7,0.4,1,0.6c0.9,0.4,1.8,0.9,2.2,1.7
			c0.5,0.9,0.4,2,0.3,3.1C652.6,1492.7,652.6,1493.5,652.6,1493.7z"/>
	</g>
	<g>
		<path fill="none" stroke="#201600" stroke-miterlimit="10" d="M579.7,1640.3c0.4,0.7-0.4,2.5-0.8,3.2c-0.5,0.8-2.1,2.2-3,2.6
			c-1.3,0.6-4.2,1-5.7,0.9c-1.6-0.1-4.7-0.7-6-1.5c-1.2-0.8-2.3-3.7-3.5-4.5c-1.4-0.9-5.1-0.6-6.6-1.4c-1-0.6-2.3-2.8-3.4-3.3
			c-1.3-0.7-4.8,0.1-5.9-0.8c-0.7-0.6-1.5-2.8-1.3-3.7c0.2-1,2-2.5,2.9-2.9c1.1-0.4,3.6-0.3,4.8,0c1,0.3,2.7,1.8,3.7,2.1
			c1.8,0.6,5.7,0.5,7.7,0.6c1.9,0.1,5.6,0.5,7.4,0.4c1.4-0.1,4-1.4,5.3-0.9c1.2,0.4,3.7,2.4,3.6,3.7c-0.1,0.9-2.8,1.2-3,2.1
			c-0.2,0.7,0.6,2.1,1.2,2.6C577.6,1639.9,579.4,1639.7,579.7,1640.3z"/>
		<path fill="none" stroke="#201600" stroke-miterlimit="10" d="M570.5,1648.5c-0.1,0-0.3,0-0.4,0c-1.5-0.1-5.1-0.7-6.8-1.8
			c-0.8-0.5-1.5-1.6-2.2-2.7c-0.4-0.6-1-1.6-1.3-1.8c-0.5-0.3-1.8-0.4-2.8-0.6c-1.4-0.2-2.7-0.3-3.7-0.8c-0.8-0.4-1.4-1.2-2.1-2
			c-0.4-0.4-1-1.2-1.3-1.3c-0.3-0.1-1.4-0.1-2.1-0.1c-1.5,0-3.1,0-4.1-0.8c-1.2-1-2.1-3.7-1.8-5.1c0.4-1.7,2.7-3.4,3.7-3.9
			c1.6-0.7,4.5-0.4,5.7-0.1c0.8,0.2,1.5,0.7,2.4,1.3c0.5,0.3,1.1,0.8,1.4,0.8c1.1,0.4,3.6,0.4,5.4,0.5c0.8,0,1.4,0,2,0.1
			c0.4,0,1,0.1,1.6,0.1c1.8,0.1,4.3,0.3,5.6,0.2c0.4,0,1-0.2,1.7-0.4c1.5-0.4,3-0.9,4.2-0.5c1.4,0.5,4.8,2.8,4.6,5.1
			c-0.1,1.3-1.4,1.9-2.4,2.3c-0.2,0.1-0.4,0.2-0.6,0.3c0.1,0.3,0.4,0.7,0.5,0.9c0.1,0,0.4,0.1,0.6,0.1c0.9,0.1,1.9,0.3,2.4,1.3
			c0,0,0,0,0,0c0.9,1.7-0.8,4.5-0.9,4.6c-0.7,1.1-2.5,2.6-3.6,3.1C575,1648.1,572.1,1648.5,570.5,1648.5z M548,1634.6
			c1.2,0,2.4,0,3.3,0.4c0.8,0.4,1.5,1.2,2.2,2c0.4,0.5,1,1.1,1.2,1.3c0.5,0.3,1.7,0.4,2.6,0.5c1.6,0.2,3,0.3,4.1,1
			c0.9,0.5,1.5,1.6,2.2,2.7c0.4,0.6,1,1.6,1.3,1.8c0.9,0.6,3.7,1.2,5.3,1.3c1.3,0.1,4-0.3,5-0.8c0.7-0.3,2.1-1.5,2.4-2.1
			c0.3-0.4,0.5-1.1,0.6-1.5c-0.1,0-0.2,0-0.3,0c-0.7-0.1-1.4-0.2-2-0.7c-0.6-0.5-2-2.5-1.6-4c0.3-1.1,1.4-1.6,2.3-2
			c0.1-0.1,0.3-0.1,0.5-0.2c-0.5-0.7-1.7-1.7-2.4-1.9c-0.4-0.1-1.8,0.3-2.5,0.5c-0.8,0.2-1.6,0.5-2.3,0.5c-1.5,0.1-4-0.1-6-0.2
			c-0.6,0-1.1-0.1-1.6-0.1c-0.5,0-1.2,0-1.9-0.1c-2.2-0.1-4.6-0.1-6.1-0.6c-0.7-0.2-1.4-0.7-2.2-1.2c-0.5-0.3-1.2-0.8-1.5-0.9
			c-1-0.3-3.2-0.3-3.8-0.1c-0.7,0.3-1.9,1.4-2.1,1.9c-0.1,0.5,0.4,2,0.8,2.3C546,1634.6,547.3,1634.6,548,1634.6
			C548,1634.6,548,1634.6,548,1634.6z"/>
	</g>
	<g>
		<path fill="none" stroke="#201600" stroke-miterlimit="10" d="M481.7,1614.2c0.5,0.7,0.2,2.7,0,3.6c-0.1,0.7-0.4,2.2-1,2.5
			c-0.6,0.3-2.1-0.1-2.7-0.5c-0.6-0.4-1.4-1.8-1.6-2.5c-0.2-0.7-0.4-2.4,0-3c0.3-0.5,1.4-1.1,2-1.1
			C479.3,1613,481.2,1613.5,481.7,1614.2z"/>
		<path fill="none" stroke="#201600" stroke-miterlimit="10" d="M480.2,1621.8c-1.2,0-2.5-0.6-2.9-0.9c-1-0.7-1.9-2.4-2.1-3.3
			c-0.2-0.5-0.6-2.8,0.1-4.1c0.6-1,2.2-1.8,3.1-1.9c1.1-0.1,3.6,0.4,4.5,1.7l0,0h0c0.6,0.9,0.7,2.3,0.2,4.7
			c-0.3,1.7-0.7,2.9-1.7,3.5C481.1,1621.7,480.6,1621.8,480.2,1621.8z M477.7,1615c-0.1,0.3,0,1.3,0.1,1.9c0.2,0.5,0.8,1.5,1,1.7
			c0.2,0.1,0.7,0.3,1.1,0.4c0.1-0.2,0.2-0.6,0.3-1.4c0.3-1.7,0.3-2.3,0.2-2.5c-0.4-0.2-1.4-0.5-1.9-0.5
			C478.4,1614.6,477.9,1614.8,477.7,1615z"/>
	</g>
</g>
</svg>
